<svg t="1770369690154" class="icon" viewBox="0 0 1024 1024" version="1.1" xmlns="http://www.w3.org/2000/svg" p-id="6518" width="200" height="200"><path d="M0 0m0 0l1024 0q0 0 0 0l0 1024q0 0 0 0l-1024 0q0 0 0 0l0-1024q0 0 0 0Z" fill="#FFFFFF" p-id="6519"></path><path d="M634.844 159.092A35.092 35.092 0 0 1 669.96 124h155.96C866.832 124 900 157.168 900 198.08v155.96a35.092 35.092 0 0 1-70.18 0V198.08a3.928 3.928 0 0 0-3.9-3.896h-155.96a35.092 35.092 0 0 1-35.116-35.092zM128 198.08C128 157.168 161.168 124 202.08 124h155.96a35.092 35.092 0 0 1 0 70.184H202.08a3.928 3.928 0 0 0-3.896 3.896v155.96a35.092 35.092 0 1 1-70.184 0V198.08z m230.04 120.872a35.092 35.092 0 0 1 35.092 35.092v311.92a35.092 35.092 0 1 1-70.184 0v-311.92a35.092 35.092 0 0 1 35.092-35.092z m191.052 35.092c0-19.34-15.7-35.092-35.092-35.092s-35.092 15.752-35.092 35.092v311.92a35.092 35.092 0 1 0 70.184 0v-311.92z m155.96 0c0-19.34-15.7-35.092-35.092-35.092s-35.092 15.752-35.092 35.092v311.92a35.092 35.092 0 0 0 70.184 0v-311.92z m-541.96 276.8a35.092 35.092 0 0 1 35.092 35.116v155.96c0 2.152 1.744 3.9 3.896 3.9h155.96a35.092 35.092 0 0 1 0 70.18H202.08C161.168 896 128 862.832 128 821.92v-155.96a35.092 35.092 0 0 1 35.092-35.116zM900 665.96a35.08 35.08 0 0 0-35.092-35.092 35.08 35.08 0 0 0-35.088 35.092v155.96a3.904 3.904 0 0 1-3.9 3.9h-155.96a35.088 35.088 0 1 0 0 70.18h155.96c40.912 0 74.08-33.168 74.08-74.08v-155.96z" fill="#333333" p-id="6520"></path></svg>
