<svg t="1762235764308" class="icon" viewBox="0 0 1024 1024" version="1.1" xmlns="http://www.w3.org/2000/svg" p-id="2592" width="200" height="200"><path d="M877.714286 0H146.285714A146.285714 146.285714 0 0 0 0 146.285714v731.428572a146.285714 146.285714 0 0 0 146.285714 146.285714h731.428572a146.285714 146.285714 0 0 0 146.285714-146.285714V146.285714A146.285714 146.285714 0 0 0 877.714286 0zM313.142857 182.857143h397.714286a36.571429 36.571429 0 0 1 0 73.142857h-397.714286a36.571429 36.571429 0 0 1 0-73.142857z m397.714286 658.285714h-397.714286a36.571429 36.571429 0 0 1 0-73.142857h397.714286a36.571429 36.571429 0 0 1 0 73.142857zM909.714286 585.142857a73.142857 73.142857 0 0 1-73.142857 73.142857H185.874286a73.142857 73.142857 0 0 1-73.142857-73.142857V438.857143a73.142857 73.142857 0 0 1 73.142857-73.142857H836.571429a73.142857 73.142857 0 0 1 73.142857 73.142857z" p-id="2593"></path><path d="M854.857143 585.142857a18.285714 18.285714 0 0 1-18.285714 18.285714H185.874286a18.285714 18.285714 0 0 1-18.285715-18.285714V438.857143a18.285714 18.285714 0 0 1 18.285715-18.285714H836.571429a18.285714 18.285714 0 0 1 18.285714 18.285714z" p-id="2594"></path></svg>
