<svg t="1752242265583" class="icon" viewBox="0 0 1024 1024" version="1.1" xmlns="http://www.w3.org/2000/svg" p-id="6026" width="200" height="200"><path d="M769.403 352.671C754.596 223.687 644.88 123.144 512.004 123.144c-132.88 0-242.6 100.543-257.403 229.527-75.715 12.549-131.457 70.811-131.457 143.127 0 81.77 71.172 145.822 162.025 145.822h32.403V382.38c0-107.212 87.216-194.43 194.432-194.43 107.212 0 194.424 87.218 194.424 194.43v227.054c0.809 117.26-65.658 149.56-104.229 158.44-14.298-35.918-49.24-61.443-90.195-61.443-53.612 0-97.218 43.606-97.218 97.214s43.606 97.211 97.218 97.211c43.264 0 79.584-28.596 92.15-67.738 27.683-4.896 71.298-18.156 107.438-54.534 34.351-34.621 53.884-81.583 58.488-139.718 75.376-12.778 130.776-70.962 130.776-143.068 0-72.316-55.738-130.579-131.453-143.127z m-516.642 219.71c-38.116-10.889-64.807-40.664-64.807-76.583 0-35.92 26.69-65.694 64.807-76.581V572.38z m259.243 263.668c-17.868 0-32.407-14.523-32.407-32.404 0-17.883 14.54-32.407 32.407-32.407 17.864 0 32.4 14.524 32.4 32.407-0.001 17.88-14.536 32.404-32.4 32.404zM771.238 572.38V419.217c38.116 10.888 64.807 40.663 64.807 76.581 0 35.92-26.69 65.694-64.807 76.582z" p-id="6027"></path></svg>
