<svg t="1781674741341" class="icon" viewBox="0 0 1024 1024" version="1.1" xmlns="http://www.w3.org/2000/svg" p-id="7262" width="200" height="200"><path d="M768 540.444444H256c-14.222222 0-28.444444-14.222222-28.444444-28.444444s14.222222-28.444444 28.444444-28.444444h512c17.066667 0 28.444444 14.222222 28.444444 28.444444s-11.377778 28.444444-28.444444 28.444444m0 227.555556H256c-14.222222 0-28.444444-14.222222-28.444444-28.444444s14.222222-28.444444 28.444444-28.444445h512c17.066667 0 28.444444 14.222222 28.444444 28.444445s-11.377778 28.444444-28.444444 28.444444M256 256h341.333333c14.222222 0 28.444444 11.377778 28.444445 28.444444s-14.222222 28.444444-28.444445 28.444445H256c-14.222222 0-28.444444-11.377778-28.444444-28.444445s14.222222-28.444444 28.444444-28.444444m654.222222-256H113.777778C65.422222 0 28.444444 36.977778 28.444444 85.333333v853.333334c0 48.355556 36.977778 85.333333 85.333334 85.333333h796.444444c48.355556 0 85.333333-36.977778 85.333334-85.333333V85.333333c0-48.355556-36.977778-85.333333-85.333334-85.333333" p-id="7263"></path></svg>