<svg t="1752303196280" class="icon" viewBox="0 0 1024 1024" version="1.1" xmlns="http://www.w3.org/2000/svg" p-id="18032" width="200" height="200"><path d="M912.3 329.1H112.2c-25.7 0-46.7-20.9-46.7-46.7V149.1c0-25.7 20.9-46.7 46.7-46.7h800.1c25.7 0 46.7 20.9 46.7 46.7v133.3c0 25.8-20.9 46.7-46.7 46.7zM112.2 142.5c-3.6 0-6.7 3.1-6.7 6.7v133.3c0 3.6 3.1 6.7 6.7 6.7h800.1c3.6 0 6.7-3.1 6.7-6.7V149.1c0-3.6-3.1-6.7-6.7-6.7H112.2z" fill="#ffffff" p-id="18033"></path><path d="M292.3 329.1h-180c-25.7 0-46.7-20.9-46.7-46.7V149.1c0-25.7 20.9-46.7 46.7-46.7h180v226.7zM112.2 142.5c-3.6 0-6.7 3.1-6.7 6.7v133.3c0 3.6 3.1 6.7 6.7 6.7h140V142.5h-140zM912.3 625.8H112.2c-25.7 0-46.7-20.9-46.7-46.7V445.8c0-25.7 20.9-46.7 46.7-46.7h800.1c25.7 0 46.7 20.9 46.7 46.7v133.3c0 25.8-20.9 46.7-46.7 46.7zM112.2 439.2c-3.6 0-6.7 3.1-6.7 6.7v133.3c0 3.6 3.1 6.7 6.7 6.7h800.1c3.6 0 6.7-3.1 6.7-6.7V445.8c0-3.6-3.1-6.7-6.7-6.7H112.2z" fill="#ffffff" p-id="18034"></path><path d="M292.3 625.8h-180c-25.7 0-46.7-20.9-46.7-46.7V445.8c0-25.7 20.9-46.7 46.7-46.7h180v226.7zM112.2 439.2c-3.6 0-6.7 3.1-6.7 6.7v133.3c0 3.6 3.1 6.7 6.7 6.7h140V439.2h-140zM912.3 922.5H112.2c-25.7 0-46.7-20.9-46.7-46.7V742.5c0-25.7 20.9-46.7 46.7-46.7h800.1c25.7 0 46.7 20.9 46.7 46.7v133.3c0 25.8-20.9 46.7-46.7 46.7zM112.2 735.9c-3.6 0-6.7 3.1-6.7 6.7v133.3c0 3.6 3.1 6.7 6.7 6.7h800.1c3.6 0 6.7-3.1 6.7-6.7V742.5c0-3.6-3.1-6.7-6.7-6.7H112.2z" fill="#ffffff" p-id="18035"></path><path d="M292.3 922.5h-180c-25.7 0-46.7-20.9-46.7-46.7V742.5c0-25.7 20.9-46.7 46.7-46.7h180v226.7zM112.2 735.9c-3.6 0-6.7 3.1-6.7 6.7v133.3c0 3.6 3.1 6.7 6.7 6.7h140V735.9h-140z" fill="#ffffff" p-id="18036"></path></svg>
