<svg t="1753843306154" class="icon" viewBox="0 0 1024 1024" version="1.1" xmlns="http://www.w3.org/2000/svg" p-id="9032" width="200" height="200"><path d="M153.710336 921.601536a53.393485 53.393485 0 0 1-36.57088-15.35977 50.467814 50.467814 0 0 1 0-73.14176 54.85632 54.85632 0 0 1 36.57088-15.359769 53.393485 53.393485 0 0 1 36.57088 15.359769 50.467814 50.467814 0 0 1 0 73.14176 49.004979 49.004979 0 0 1-36.57088 15.35977z m0-59.244826a8.045594 8.045594 0 0 0-5.851341 0A8.777011 8.777011 0 0 0 146.39616 877.71648a8.777011 8.777011 0 0 0 11.702682 0 8.777011 8.777011 0 0 0 0-12.434099 8.045594 8.045594 0 0 0-4.388506-2.925671z" fill="#ffffff" p-id="9033"></path><path d="M131.03639 1024a107.518387 107.518387 0 0 1-73.14176-29.988122l-27.062451-27.062451a103.129882 103.129882 0 0 1 0-146.28352L512.10496 415.460557a269.893094 269.893094 0 0 1-38.033715-160.911872A273.550182 273.550182 0 0 1 749.81568 0.01536a282.327194 282.327194 0 0 1 103.861299 20.479693 27.793869 27.793869 0 0 1 16.091188 19.748275 24.868198 24.868198 0 0 1-7.314176 24.136781l-141.163597 138.969344 95.815705 95.815705 140.43218-138.237926a25.599616 25.599616 0 0 1 19.748275-8.045594h5.851341a27.793869 27.793869 0 0 1 19.748275 16.091187 266.236006 266.236006 0 0 1 16.091187 156.523367 266.236006 266.236006 0 0 1-73.14176 146.28352 269.893094 269.893094 0 0 1-308.658227 54.124902l-432.267802 468.107264a106.78697 106.78697 0 0 1-73.873178 29.988122zM73.2544 859.43104a49.004979 49.004979 0 0 0 0 68.753254l27.062451 27.062452a50.467814 50.467814 0 0 0 33.64521 14.628352 47.542144 47.542144 0 0 0 33.645209-14.628352l440.313396-484.929869a29.256704 29.256704 0 0 1 20.479693-8.777012 23.405363 23.405363 0 0 1 13.896934 3.657088 219.42528 219.42528 0 0 0 108.249805 28.525287 213.573939 213.573939 0 0 0 152.866278-63.633331 219.42528 219.42528 0 0 0 59.976243-198.945588l-127.266662 125.803828a25.599616 25.599616 0 0 1-19.748275 8.045593 27.793869 27.793869 0 0 1-20.479693-8.045593L662.776986 219.44064a28.525286 28.525286 0 0 1 0-38.765133L790.775066 57.79735a266.236006 266.236006 0 0 0-40.959386-3.657088 219.42528 219.42528 0 0 0-176.271641 350.349031 26.331034 26.331034 0 0 1-4.388506 36.57088z" fill="#ffffff" p-id="9034"></path><path d="M394.346726 520.784691A29.256704 29.256704 0 0 1 374.598451 512.00768L181.504205 319.644851h-65.096167a26.331034 26.331034 0 0 1-23.405363-13.165517L3.769728 163.852902a27.793869 27.793869 0 0 1 4.388506-33.645209l73.14176-73.14176A31.450957 31.450957 0 0 1 99.585434 51.214592a24.868198 24.868198 0 0 1 14.628352 4.388505l146.28352 90.695783a25.599616 25.599616 0 0 1 12.434099 21.942528v64.364749L472.60841 431.551744a29.256704 29.256704 0 0 1 8.045593 19.748275 24.136781 24.136781 0 0 1-8.045593 18.28544 26.331034 26.331034 0 0 1-19.016858 8.045594 29.256704 29.256704 0 0 1-19.748275-8.045594L226.852096 261.862861a26.331034 26.331034 0 0 1-7.314176-18.28544V182.86976l-114.832563-73.14176-43.153639 43.885056 73.14176 112.63831h61.439079a28.525286 28.525286 0 0 1 19.748275 8.045594l197.482752 200.408422a29.256704 29.256704 0 0 1 8.045594 19.748275 26.331034 26.331034 0 0 1-8.045594 17.554023 27.793869 27.793869 0 0 1-19.016858 8.777011zM804.672 1024a63.633331 63.633331 0 0 1-46.079309-19.748275l-234.785049-234.78505a64.364749 64.364749 0 0 1 0-90.695782l7.314176-7.314176-8.045594-8.045594a25.599616 25.599616 0 0 1 0-38.033715 25.599616 25.599616 0 0 1 19.016858-7.314176 28.525286 28.525286 0 0 1 19.748275 7.314176l27.062451 27.062451a27.062451 27.062451 0 0 1 0 37.302298l-25.599616 27.062451a10.971264 10.971264 0 0 0 0 15.35977l232.590797 235.516467a10.239846 10.239846 0 0 0 14.628352 0l106.055552-106.78697a11.702682 11.702682 0 0 0 0-16.091187l-234.053632-234.78505a8.045594 8.045594 0 0 0-6.582758 0 8.777011 8.777011 0 0 0-7.314176 0l-29.256704 29.256704a27.793869 27.793869 0 0 1-19.748276 7.314176 29.988122 29.988122 0 0 1-19.748275-7.314176l-23.405363-25.599616a29.256704 29.256704 0 0 1-8.045594-19.748275 24.136781 24.136781 0 0 1 8.045594-18.28544 27.793869 27.793869 0 0 1 19.016858-8.045594 28.525286 28.525286 0 0 1 19.748275 8.045594l5.851341 5.119923 8.777011-8.777011a65.096166 65.096166 0 0 1 46.079309-19.748275 62.901914 62.901914 0 0 1 45.347891 19.748275L950.95552 804.57472a62.901914 62.901914 0 0 1 0 90.695782l-106.055552 106.055552A62.170496 62.170496 0 0 1 804.672 1024z" fill="#ffffff" p-id="9035"></path></svg>
