<svg t="1754543947739" class="icon" viewBox="0 0 1024 1024" version="1.1" xmlns="http://www.w3.org/2000/svg" p-id="31240" width="200" height="200"><path d="M33.645714 422.326857c0-78.262857 63.926857-142.336 142.336-142.336s142.482286 64.073143 142.482286 142.336c0 78.409143-64.073143 142.482286-142.482286 142.482286S33.645714 500.736 33.645714 422.326857z m226.304 194.413714c-11.995429 30.427429-19.163429 64.073143-19.163428 100.059429v247.954286H0V769.609143c0-96.841143 79.140571-175.981714 175.250286-175.981714 31.158857 0 59.099429 8.777143 84.699428 23.113142z" fill="#e6e6e6" opacity=".5" p-id="31241"></path><path d="M668.847543 559.133257c24.722286 23.990857 42.276571 54.418286 53.540571 88.064-11.264-33.645714-28.818286-64.073143-53.540571-88.064z m-157.696-65.536c61.586286 0 116.882286 24.868571 157.696 65.536-40.082286-40.667429-96.109714-65.536-157.696-65.536z m-210.358857 153.6c11.264-33.645714 29.549714-64.073143 53.540571-88.064-24.722286 23.990857-42.276571 54.418286-53.540571 88.064z m421.595428 0c7.168 22.381714 11.995429 45.641143 11.995429 69.632 0-24.868571-4.827429-47.981714-11.995429-69.632z" fill="#e6e6e6" p-id="31242"></path><path d="M511.151543 444.021029c-99.181714 0-180.809143-80.749714-180.809143-180.809143s80.896-180.809143 180.809143-180.809143c100.059429 0 180.809143 80.749714 180.809143 180.809143s-80.749714 180.809143-180.809143 180.809143z m-3.949714 321.536c0 80.896 36.864 151.990857 95.232 199.241142h-313.636572v-247.954285c0-24.868571 4.827429-47.981714 11.995429-69.632 11.264-33.645714 29.549714-64.073143 53.540571-88.064 40.813714-40.813714 96.109714-65.536 157.696-65.536 50.322286 0 95.963429 16.822857 133.558857 44.763428-82.358857 42.422857-138.386286 128-138.386285 227.181715z" fill="#e6e6e6" p-id="31243"></path><path d="M911.945143 548.864c46.518857-23.259429 77.677714-71.241143 77.677714-126.537143 0-78.262857-63.195429-142.336-142.482286-142.336-78.262857 0-142.336 63.195429-142.336 142.336 0 32.036571 10.386286 60.854857 27.940572 84.845714 11.995429-1.609143 23.259429-2.340571 35.254857-2.340571 53.540571 0 103.277714 15.945143 143.945143 44.032z" fill="#e6e6e6" opacity=".5" p-id="31244"></path><path d="M832.424229 873.3696l39.643428-39.643429 115.858286 116.004572-39.497143 39.643428z m-97.28-304.566857c94.500571 0 170.422857 76.068571 169.691428 169.545143 0 93.622857-76.068571 169.691429-169.691428 169.691428-93.476571 0-169.545143-76.068571-169.545143-169.691428 0-93.476571 76.068571-169.545143 169.545143-169.545143z m72.850285 130.340571l-17.554285-14.336a4.929829 4.929829 0 0 0-5.705143 0.731429l-37.595429 47.250286-8.777143-7.168-18.432-14.482286c-1.462857-0.731429-3.949714-0.731429-4.681143 0.877714l-5.705142 6.436572-7.168 8.777142-39.936 50.322286c-0.877714 1.609143-0.877714 4.096 0.731428 4.827429l18.432 14.482285c1.609143 0.731429 3.949714 0.731429 4.827429-0.877714l37.595428-47.981714 9.508572 7.168 17.700571 14.482286h0.731429c1.609143 0.731429 4.096 0.731429 4.827428-0.877715v-0.731428l51.931429-65.682286c0.877714-1.609143 0.877714-3.949714-0.731429-3.218286z" fill="#e6e6e6" p-id="31245"></path></svg>
