<svg t="1772441673640" class="icon" viewBox="0 0 1024 1024" version="1.1" xmlns="http://www.w3.org/2000/svg" p-id="11333" width="200" height="200"><path d="M806.671202 125.246387l-497.84999 242.973832v156.074052L222.049414 484.235904v-156.138043l497.84999-242.909841L552.562936 7.950882c-22.39685-10.430533-58.999703-10.430533-81.396554 0L59.384289 198.004156C26.620897 213.234014-0.127342 256.107985 0.00064 293.414739l1.023856 445.633332c0.063991 37.754691 27.516131 80.628662 60.791451 95.474574l410.630255 182.310363c21.692949 9.59865 57.079973 9.59865 78.772923 0l410.822228-182.374354c33.403303-14.845912 60.72746-57.719883 60.791451-95.346592L1023.85666 293.286757c0.127982-37.242763-26.684248-80.116734-59.511631-95.346592l-157.673827-72.757769z m124.142542 356.749832l-24.124607 11.646363-0.511928 176.103235c0 7.67892-6.591073 16.829633-14.589948 20.47712l-36.090925 16.189724c-7.934884 3.519505-14.333984 0.319955-14.333984-7.358965l-0.063991-173.863551-23.292725 11.262416c-11.006452 5.247262-17.91748-3.007577-12.414254-14.973894l55.800153-122.222812c5.567217-12.350263 19.83721-19.389273 25.404428-12.798201l57.271946 67.830462c5.75919 6.783046-1.599775 22.140886-13.118156 27.708103z m-235.614866 282.776235c0.127982 7.358965-5.887172 16.061741-13.438111 19.389273l-33.467293 14.973895c-7.294974 3.327532-13.310128 0.127982-13.43811-7.294975l-1.91973-166.376603-21.628959 10.366542c-10.23856 4.863316-16.63766-3.19955-11.710353-14.589948l50.744864-116.143667c5.11928-11.774344 18.173444-18.301426 23.484697-11.838335l53.944414 65.718758c5.439235 6.527082-1.151838 21.11703-11.774344 26.23631l-22.204877 10.878471 1.407802 168.680279z m275.48126-48.313206c0 3.83946-3.391523 8.446812-7.486947 10.23856L581.038931 893.458357c-3.647487 1.535784-6.527082-0.063991-6.591073-3.647487l-0.319955-19.389273c-0.127982-3.519505 2.815604-7.806902 6.3991-9.342686l382.858161-169.32019c4.095424-1.791748 7.358965-0.127982 7.358965 3.711479l-0.063991 21.11703z" p-id="11334"></path></svg>
