<svg t="1762160420501" class="icon" viewBox="0 0 1024 1024" version="1.1" xmlns="http://www.w3.org/2000/svg" p-id="6881" width="200" height="200"><path d="M937.108 399.679L492.086 69.843 45.591 399.655l29.708 40.218 73.807-54.52v558.716h50V348.42l292.931-216.378 277.603 205.75v191.972h50V374.851l87.696 64.998z" p-id="6882"></path><path d="M286.401 493.182h115.216v115.216H286.401zM286.401 639.959h115.216v115.216H286.401zM286.401 786.735h115.216v115.216H286.401zM431.561 639.959h115.216v115.216H431.561zM431.561 786.735h115.216v115.216H431.561zM934.126 942.422H586.28V550.161h347.846v392.261z m-313.846-34h279.846V584.161H620.28v324.261z" p-id="6883"></path><path d="M679.153 635.696h37.498v37.498h-37.498zM734.817 654.445h122.59M734.816 634.445h122.591v40H734.816zM679.153 694.06h37.498v37.498h-37.498zM734.817 712.809h122.59M734.816 692.81h122.591v40H734.816zM679.153 781.012h37.498v37.498h-37.498zM734.817 799.761h122.59M734.816 779.762h122.591v40H734.816z" p-id="6884"></path><path d="M679.153 838.326h37.498v37.498h-37.498z" p-id="6885"></path><path d="M734.817 857.075h122.59M734.816 837.075h122.591v40H734.816z" p-id="6886"></path></svg>
