<svg t="1768553461707" class="icon" viewBox="0 0 1024 1024" version="1.1" xmlns="http://www.w3.org/2000/svg" p-id="10428" width="200" height="200"><path d="M981.333333 956.16H42.666667a38.4 38.4 0 0 1-38.4-38.4V336.64a38.4 38.4 0 0 1 8.533333-24.32L256 19.626667a38.4 38.4 0 0 1 29.866667-14.08h453.546666a38.4 38.4 0 0 1 29.866667 14.08l241.92 292.693333a38.826667 38.826667 0 0 1 8.96 24.32v581.12a38.4 38.4 0 0 1-38.826667 38.4z m-900.693333-76.8h862.72V350.72l-221.866667-268.373333H301.653333L80.64 350.72z" p-id="10429"></path><path d="M37.973333 285.866667h947.2v76.8H37.973333z" p-id="10430"></path><path d="M473.6 43.946667h76.8V324.266667h-76.8zM673.706667 834.986667h-256a38.4 38.4 0 0 1 0-76.8h256a78.933333 78.933333 0 0 0 0-157.44H277.333333a38.4 38.4 0 0 1 0-76.8h396.373334a155.733333 155.733333 0 0 1 0 311.04z" p-id="10431"></path><path d="M363.093333 722.773333a37.546667 37.546667 0 0 1-25.6-10.24l-159.146666-144.213333 157.866666-155.733333A38.826667 38.826667 0 0 1 390.4 469.333333L290.133333 565.76l98.986667 90.026667a38.4 38.4 0 0 1 2.56 54.186666 37.973333 37.973333 0 0 1-28.586667 12.8z" p-id="10432"></path></svg>
