<svg t="1762236592733" class="icon" viewBox="0 0 1024 1024" version="1.1" xmlns="http://www.w3.org/2000/svg" p-id="8512" width="200" height="200"><path d="M513.609143 48.761905L999.619048 316.952381h-73.142858v585.142857a48.761905 48.761905 0 0 1-48.761904 48.761905H146.285714a48.761905 48.761905 0 0 1-48.761904-48.761905V316.952381H24.380952L513.609143 48.761905zM341.333333 707.047619H195.047619v146.285714h146.285714v-146.285714z m195.047619 0h-146.285714v146.285714h146.285714v-146.285714z m-195.047619-195.047619H195.047619v146.285714h146.285714v-146.285714z m414.476191 24.380952H512a24.380952 24.380952 0 0 0-24.380952 24.380953l0.170666 2.852571A24.380952 24.380952 0 0 0 512 585.142857h184.953905l-31.524572 31.524572a24.380952 24.380952 0 0 0 34.474667 34.474666l73.142857-73.142857c15.36-15.36 4.486095-41.618286-17.237333-41.618286z m-153.429334-163.523047a24.380952 24.380952 0 0 0-34.474666 0l-73.142857 73.142857c-15.36 15.36-4.486095 41.618286 17.237333 41.618286h243.809524a24.380952 24.380952 0 0 0 24.380952-24.380953l-0.170666-2.852571A24.380952 24.380952 0 0 0 755.809524 438.857143h-184.953905l31.524571-31.524572a24.380952 24.380952 0 0 0 0-34.474666z" p-id="8513"></path></svg>
