<svg t="1765846179533" class="icon" viewBox="0 0 1024 1024" version="1.1" xmlns="http://www.w3.org/2000/svg" p-id="4521" width="200" height="200"><path d="M768 960V448a67.072 67.072 0 0 1 1.472-13.696 64.64 64.64 0 0 1 18.24-37.056 64 64 0 0 1 90.432 0l90.56 90.56a64 64 0 0 1 0 90.496 64 64 0 0 1-72.704 12.8V960a64 64 0 0 1-128 0z m-178.304 39.424a62.144 62.144 0 0 1-5.888-5.184l-90.496-90.432a64 64 0 0 1 0-90.496A64 64 0 0 1 576 806.4V448a64 64 0 0 1 64-64 64 64 0 0 1 64 64v512a64 64 0 0 1-114.368 39.424zM64 1024a64 64 0 0 1-64-64v-128a64 64 0 0 1 64-64h256a64 64 0 0 1 64 64v128a64 64 0 0 1-64 64z m0-384a64 64 0 0 1-64-64V448a64 64 0 0 1 64-64h256a64 64 0 0 1 64 64v128a64 64 0 0 1-64 64z m0-384a64 64 0 0 1-64-64V64a64 64 0 0 1 64-64h896a64 64 0 0 1 64 64v128a64 64 0 0 1-64 64z" fill="#999999" p-id="4522"></path></svg>
