<svg t="1781674605074" class="icon" viewBox="0 0 1024 1024" version="1.1" xmlns="http://www.w3.org/2000/svg" p-id="6078" width="200" height="200"><path d="M146.285714 73.142857h731.428572a48.761905 48.761905 0 0 1 48.761904 48.761905v780.190476a48.761905 48.761905 0 0 1-48.761904 48.761905H146.285714a48.761905 48.761905 0 0 1-48.761904-48.761905V121.904762a48.761905 48.761905 0 0 1 48.761904-48.761905z m121.904762 97.52381v97.523809h97.52381V170.666667h-97.52381z m-73.142857 146.285714v97.523809h97.52381v-97.523809H195.047619z m146.285714 0v97.523809h97.52381v-97.523809h-97.52381z m170.666667 48.761905a24.380952 24.380952 0 0 0 0 48.761904h292.571429a24.380952 24.380952 0 0 0 0-48.761904H512z m0-170.666667a24.380952 24.380952 0 0 0 0 48.761905h292.571429a24.380952 24.380952 0 0 0 0-48.761905H512z m170.666667 463.238095h48.761904a24.380952 24.380952 0 0 1 0 48.761905h-48.761904v48.761905a24.380952 24.380952 0 0 1-48.761905 0v-48.761905h-48.761905a24.380952 24.380952 0 0 1 0-48.761905h48.761905v-48.761904a24.380952 24.380952 0 0 1 48.761905 0v48.761904z m-24.380953 195.047619a170.666667 170.666667 0 1 0 0-341.333333 170.666667 170.666667 0 0 0 0 341.333333z" fill="#4BB4FF" p-id="6079"></path></svg>