<svg t="1772256045554" class="icon" viewBox="0 0 1024 1024" version="1.1" xmlns="http://www.w3.org/2000/svg" p-id="6470" width="200" height="200"><path d="M0.000358 0.000358m255.999911 0l511.999821 0q255.99991 0 255.99991 255.999911l0 511.999821q0 255.99991-255.99991 255.99991l-511.999821 0q-255.99991 0-255.999911-255.99991l0-511.999821q0-255.99991 255.999911-255.999911Z" fill="#00AAA6" p-id="6471"></path><path d="M913.556519 45.378903A204.851128 204.851128 0 0 1 921.600036 102.400323v614.399785c0 113.10588-91.694048 204.799928-204.799928 204.799928H102.400323a204.851128 204.851128 0 0 1-57.02142-8.043517A254.822311 254.822311 0 0 1 0.000358 768.00009V256.000269C0.000358 114.616638 114.616638 0.000358 256.000269 0.000358h511.999821a254.822311 254.822311 0 0 1 145.556429 45.378545z" fill="#19B2AF" p-id="6472"></path><path d="M768.00009 0.000358v639.999776c0 70.691815-57.30814 127.999955-127.999956 127.999956H0.000358V256.000269C0.000358 114.616638 114.616638 0.000358 256.000269 0.000358h511.999821z" fill="#30BAB7" p-id="6473"></path><path d="M563.200161 0.000358v460.799839c0 56.5555-45.844464 102.399964-102.399964 102.399964H0.000358V256.000269C0.000358 114.616638 114.616638 0.000358 256.000269 0.000358h307.199892z" fill="#45C1BE" p-id="6474"></path><path d="M307.200251 0.000358v204.799929c0 56.5555-45.844464 102.399964-102.399964 102.399964H0.000358V256.000269C0.000358 114.616638 114.616638 0.000358 256.000269 0.000358h51.199982z" fill="#58C7C5" p-id="6475"></path><path d="M534.236331 619.474062c-11.120636-3.706879-22.236152 0-29.644789 11.115516-33.356788 29.64991-59.294699 63.001578-92.651488 92.646367-33.351668 33.356788-85.23261 33.356788-118.584278 0-14.827515-14.822395-25.943031-40.765426-25.943031-62.996458 0-22.236152 11.115516-44.472304 29.644789-59.294699 29.64479-33.356788 63.001578-63.001578 92.646368-92.646368 7.413757-7.413757 11.120636-14.827515 11.120636-22.236152 0-7.413757-3.706879-18.534394-11.120636-25.943031-3.701759-3.706879-14.822395-7.413757-22.231032-7.413757-7.413757 0-14.827515 3.706879-22.236152 11.120636l-92.646368 92.646368c-33.356788 33.351668-48.179183 81.530851-40.765426 129.704914 7.408637 48.179183 40.765426 85.23773 81.525732 107.473883 51.886062 25.937911 111.180761 14.822395 151.946187-22.236153a1370.17296 1370.17296 0 0 0 103.761883-103.767003c7.413757-7.408637 7.413757-18.529274 7.413758-29.64479-3.706879-7.413757-11.120636-14.822395-22.236153-18.529273zM411.940054 367.47287c-7.408637-7.413757-14.822395-11.115516-22.236152-11.115516-7.408637 0-14.822395 3.701759-22.231032 11.115516-7.413757 3.706879-11.120636 11.115516-11.120636 22.236152 0 7.408637 3.706879 14.822395 11.120636 22.236152 62.996458 62.996458 185.292735 185.292735 248.294313 244.587435 3.701759 3.706879 11.115516 7.408637 18.529273 11.115516 14.822395 0 25.937911-7.408637 33.351669-18.529274 3.706879-11.115516 3.706879-25.937911-7.413758-33.351668L411.940054 367.47287z m389.119864-63.001578c-18.529274-51.880942-70.410215-85.23261-126.003156-85.23261-33.351668-3.706879-66.703337 7.408637-96.348126 29.644789-37.063667 33.351668-74.122214 70.410215-111.180761 107.468763-3.701759 3.706879-3.701759 18.534394 0 25.943031 3.706879 11.120636 14.827515 18.534394 25.943031 18.534393 11.115516 0 18.529274-3.711999 25.943031-11.120636 33.351668-33.351668 62.996458-63.001578 96.353246-92.646368 18.529274-18.534394 48.174063-25.943031 74.117094-18.534393 29.64479 7.413757 51.880942 29.64991 59.294699 59.294699 7.408637 29.64991 0 59.294699-22.236152 81.530852L634.296456 512.000179c-14.827515 11.120636-14.827515 33.356788-3.706878 44.472305 14.822395 14.822395 33.351668 14.822395 48.174063 0l96.353246-96.353247c40.765426-37.058547 51.880942-103.761884 25.943031-155.647945z" fill="#FFFFFF" p-id="6476"></path></svg>
