<svg t="1772256066257" class="icon" viewBox="0 0 1024 1024" version="1.1" xmlns="http://www.w3.org/2000/svg" p-id="6798" width="200" height="200"><path d="M983.1 688.5c-58.3-85.3-164.5-122.7-260-80h-0.1c-95.6 42.6-148.5 138.6-127.4 239.9 21.2 96 106 170.7 207 170.7 56.8 0.1 111.6-20.8 154-58.6 69-74.8 85-186.8 26.5-272z m-282.6 40.9s73-51.5 74.4-52.6c0 0 3.7-2.5 7.3-1.7 4.5 0.8 4.2 5.7 4.2 5.7v39.4h71c37.2 0 51.4 27.1 56.2 46.8 2.7 11.2-4.8 7-5.3 6.7-15.9-11.4-48.9-15.9-48.9-15.9h-72.7v36.6s0 5.7-4.2 6.8c-3.9 0.8-8.7-0.8-8.7-0.8l-75.5-51s-5-2.8-5-9.7c0.2-7 7.2-10.3 7.2-10.3z m209.1 151.2s-73 51.5-74.4 52.6c-0.6 0.6-2.5 1.9-5.9 1.7-4.8-0.6-5.6-5.7-5.6-5.7v-39.4h-71.3c-37.8 0-51.5-27.9-56.5-47.7-2.7-10.8 2.3-8.6 4.6-6.8 13.6 10.4 41.7 15.3 48.6 16.4 1 0.2 2 0.2 3 0.2h71.8v-36.6s0.3-5.1 5.6-6.5c2.4-0.7 5-0.4 7.3 0.8l74.9 51.3s5 2.8 5 9.8c-0.1 6.5-7.1 9.9-7.1 9.9z" p-id="6799"></path><path d="M699.9 551.9c75.8-33.8 156.6-28.5 225.1 6.2v-238c0-20.1-6.1-39.7-17.4-56.3l-97.5-143c-12-17.5-31.8-27.9-52.9-27.9H260.8c-21.2 0-41 10.5-52.9 27.9l-97.5 143.1C99.1 280.5 93 300.1 93 320.2v540.7c0 35.3 28.7 64 64 64h402.2c-10.1-20.4-17.9-42.1-22.9-64.8-27.2-130.2 40.8-253.5 163.6-308.2zM265 164.9h488l57.3 84H207.8l57.2-84z m225 531.5c-3.2 2.4-7.1 3.6-11 3.6-3 0-5.9-0.7-8.7-2.1l-103.4-54.4-103.4 54.4c-6.3 3.3-13.9 2.8-19.6-1.4s-8.6-11.2-7.4-18.2l19.7-115.4-83.7-81.6c-5.1-5-6.9-12.4-4.7-19.1 2.2-6.8 8-11.7 15-12.7l115.6-16.8L350.2 328c3.1-6.4 9.6-10.4 16.7-10.4s13.6 4 16.7 10.4l51.7 104.8 115.6 16.8c7 1 12.9 5.9 15 12.7 2.3 6.7 0.5 14.1-4.6 19.1L477.6 563l19.8 115.2c1.2 7-1.7 14.1-7.4 18.2z" p-id="6800"></path></svg>
