<svg t="1772255851334" class="icon" viewBox="0 0 1024 1024" version="1.1" xmlns="http://www.w3.org/2000/svg" p-id="6312" width="200" height="200"><path d="M699.9 551.9h0.1c75.7-33.8 156.5-28.5 225 6.2v-238c0-20.1-6.1-39.7-17.4-56.3l-97.5-143c-12-17.5-31.8-27.9-52.9-27.9H260.8c-21.2 0-41 10.5-52.9 27.9l-97.5 143.1C99.1 280.5 93 300.1 93 320.2v540.7c0 35.3 28.7 64 64 64h402.2c-10.1-20.4-17.9-42.1-22.9-64.8-27.2-130.2 40.8-253.5 163.6-308.2zM265 164.9h488l57.3 84H207.8l57.2-84z m225 531.5c-3.2 2.4-7.1 3.6-11 3.6-3 0-5.9-0.7-8.7-2.1l-103.4-54.4-103.4 54.4c-6.3 3.3-13.9 2.8-19.6-1.4-5.7-4.2-8.6-11.2-7.4-18.2l19.7-115.4-83.7-81.6c-5.1-5-6.9-12.4-4.7-19.1 2.2-6.8 8-11.7 15-12.7l115.6-16.8L350.2 328c3.1-6.4 9.6-10.4 16.7-10.4s13.6 4 16.7 10.4l51.7 104.8 115.6 16.8c7 1 12.9 5.9 15 12.7 2.3 6.7 0.5 14.1-4.6 19.1L477.6 563l19.8 115.2c1.2 7-1.7 14.1-7.4 18.2z" p-id="6313"></path><path d="M983.1 688.5c-58.3-85.3-164.5-122.7-260-80h-0.1c-95.6 42.6-148.5 138.6-127.4 239.9 21.2 96 106 170.7 207 170.7 56.8 0.1 111.6-20.8 154-58.6 69-74.8 85-186.8 26.5-272z m-180 197.8l-16.9 16.9c-23.5 23.5-61.1 24.5-84.6 0.9-22.6-22.6-22.6-61.1 0.9-84.6l43.3-43.3c9.4-9.4 20.7-15 32.9-16.9 13.2-1.9 26.3 0 37.6 6.6 8.5 4.7 12.2 15 7.5 24.5-4.7 8.5-15 12.2-24.5 7.5h-0.9c-4.7-2.8-9.4-2.8-15-1.9-5.6 0.9-10.3 3.8-14.1 7.5L726 846.8c-9.4 9.4-10.3 24.5-0.9 33.9s24.5 8.5 33.9-0.9l16.9-16.9c6.6-6.6 17.9-6.6 25.4 0 8.4 5.6 8.4 16.9 1.8 23.4z m104.4-95.9l-43.3 43.3c-14.1 14.1-33.9 20.7-53.6 16.9-8.5-1.9-16-4.7-23.5-9.4-8.5-5.6-10.3-16-5.6-24.5 5.6-8.5 16-10.3 24.5-5.6 0 0 0.9 0 0.9 0.9 2.8 1.9 5.6 2.8 8.5 3.8 8.5 0.9 16-0.9 21.6-7.5l43.3-43.3c9.4-9.4 10.3-24.5 0.9-33.9-9.4-9.4-24.5-8.5-33.9 0.9l-16.9 17c-6.6 6.6-17.9 6.6-25.4 0-6.6-6.6-6.6-17.9 0-25.4l16.9-16.9c23.5-23.5 61.1-24.5 84.6-0.9 25.4 23.5 24.5 61.1 1 84.6z" p-id="6314"></path></svg>
