<svg t="1772256143805" class="icon" viewBox="0 0 1024 1024" version="1.1" xmlns="http://www.w3.org/2000/svg" p-id="6956" width="200" height="200"><path d="M86.272 916.906667a32 32 0 0 1 32-32H906.666667a32 32 0 0 1 0 64H118.272a32 32 0 0 1-32-32zM853.333333 139.093333H170.666667a21.333333 21.333333 0 0 0-21.333334 21.333334v597.333333a21.333333 21.333333 0 0 0 21.333334 21.333333h271.530666a262.656 262.656 0 0 0 45.013334 64H170.666667a85.333333 85.333333 0 0 1-85.333334-85.333333v-597.333333a85.333333 85.333333 0 0 1 85.333334-85.333334h682.666666a85.333333 85.333333 0 0 1 85.333334 85.333334v298.666666h-64v-298.666666a21.333333 21.333333 0 0 0-21.333334-21.333334z m-16.64 315.648V232.96h-40.533333v196.010667c14.336 7.338667 27.904 16 40.533333 25.770666z m-73.685333-39.978666V232.96h-40.533333v171.221333c13.909333 2.474667 27.477333 5.973333 40.533333 10.581334z m-73.685333-14.250667V232.96h-84.48v177.194667a262.186667 262.186667 0 0 1 84.48-9.642667z m-117.589334 21.546667V232.96h-55.808v222.336c17.066667-13.226667 35.754667-24.448 55.808-33.237333z m-88.96 63.957333V232.96H386.304v452.266667h29.44a261.034667 261.034667 0 0 1 67.072-199.253334zM187.306667 232.96h52.778666v452.266667H187.264V232.96z m165.845333 0H273.194667v452.266667h79.914666V232.96z" p-id="6957"></path><path d="M662.442667 738.218667a105.130667 105.130667 0 1 1 0-210.218667 105.130667 105.130667 0 0 1 0 210.218667z m0 64a169.130667 169.130667 0 1 0 0-338.218667 169.130667 169.130667 0 0 0 0 338.218667z" p-id="6958"></path><path d="M891.605333 817.024a32 32 0 1 1-45.226666 45.226667l-104.448-104.405334a32 32 0 0 1 45.226666-45.226666l104.448 104.405333z" p-id="6959"></path></svg>
