<svg t="1772256240939" class="icon" viewBox="0 0 1024 1024" version="1.1" xmlns="http://www.w3.org/2000/svg" p-id="7117" width="200" height="200"><path d="M714.6 952.3h-400c-137 0-248-111-248-248v-400c0-137 111-248 248-248h400c137 0 248 111 248 248v400c0 137-111.1 248-248 248z" fill="#EE827C" p-id="7118"></path><path d="M786.7 193.5H524c-24.2 0-43.9 19.6-43.9 43.9v249.3h-63.7v50.7h63.7v249.3c0 24.2 19.6 43.9 43.9 43.9h262.6c24.2 0 43.9-19.6 43.9-43.9V237.3c0-24.2-19.6-43.8-43.8-43.8zM524 798.7c-6.6 0-12-5.4-12-12V237.3c0-6.6 5.4-12 12-12h262.6c6.6 0 12 5.4 12 12v549.3c0 6.6-5.4 12-12 12H524z m0 0" fill="#FFFFFF" p-id="7119"></path><path d="M575.7 289h63.7v63.7h-63.7z m95.6 0H735v63.7h-63.7z m-95.6 95.6h63.7v63.7h-63.7z m95.6 0H735v63.7h-63.7z m-95.6 95.5h63.7v63.7h-63.7z m-299-254.8c6.8 0 12.3 5.5 12.3 12.3v70.9c0 6.8-5.5 12.3-12.3 12.3h-39c-6.8 0-12.3-5.5-12.3-12.3v-70.9c0-6.8 5.5-12.3 12.3-12.3h39m0 223c6.8 0 12.3 5.5 12.3 12.3v102.7c0 6.8-5.5 12.3-12.3 12.3h-39c-6.8 0-12.3-5.5-12.3-12.3V460.6c0-6.8 5.5-12.3 12.3-12.3h39m0 254.8c6.8 0 12.3 5.5 12.3 12.3v70.9c0 6.8-5.5 12.3-12.3 12.3h-39c-6.8 0-12.3-5.5-12.3-12.3v-70.9c0-6.8 5.5-12.3 12.3-12.3h39" fill="#FFFFFF" p-id="7120"></path><path d="M276.7 193.5h-39c-24.4 0-44.2 19.8-44.2 44.2v70.9c0 24.4 19.8 44.2 44.2 44.2h39c24.4 0 44.2-19.8 44.2-44.2V289h63.7v197.6h-63.7v-26c0-24.4-19.8-44.2-44.2-44.2h-39c-24.4 0-44.2 19.8-44.2 44.2v102.7c0 24.4 19.8 44.2 44.2 44.2h39c24.4 0 44.2-19.8 44.2-44.2v-26h63.7V735h-63.7v-19.5c0-24.4-19.8-44.2-44.2-44.2h-39c-24.4 0-44.2 19.8-44.2 44.2v70.9c0 24.4 19.8 44.2 44.2 44.2h39c24.4 0 44.2-19.8 44.2-44.2v-19.5h63.7c17.6 0 31.9-14.3 31.9-31.9V289c0-17.6-14.3-31.9-31.9-31.9h-63.7v-19.5c0-24.4-19.8-44.1-44.2-44.1z m394.6 286.6H735v63.7h-63.7z m-95.6 95.6h63.7v63.7h-63.7z m95.6 0H735v63.7h-63.7z m-95.6 95.6h63.7V735h-63.7z m95.6 0H735V735h-63.7z m63.7 0" fill="#FFFFFF" p-id="7121"></path></svg>
