<svg t="1783502337606" class="icon" viewBox="0 0 1024 1024" version="1.1" xmlns="http://www.w3.org/2000/svg" p-id="15229" width="200" height="200"><path d="M0 512a512 512 0 1 0 1024 0A512 512 0 0 0 0 512z m315.477333 185.856l0.512-2.901333a86.186667 86.186667 0 0 1 85.077334-74.24h25.429333A184.32 184.32 0 0 0 512 640a184.32 184.32 0 0 0 85.504-19.285333h29.269333c42.752 0 79.36 31.914667 85.077334 74.24l35.157333 172.8a424.277333 424.277333 0 0 1-466.602667 2.048l35.072-171.946667zM384 405.333333c0-68.522667 59.477333-128 128-128s128 59.477333 128 128c0 72.874667-64.085333 149.333333-128 149.333334s-128-76.458667-128-149.333334z m412.16 276.736A171.690667 171.690667 0 0 0 681.130667 544.426667c25.344-37.973333 44.202667-92.928 44.202666-139.093334 0-115.797333-97.536-213.333333-213.333333-213.333333s-213.333333 97.536-213.333333 213.333333c0 46.592 19.114667 101.973333 44.885333 140.202667a171.690667 171.690667 0 0 0-111.872 136.533333l-25.856 126.464A424.96 424.96 0 0 1 85.333333 512c0-235.264 191.402667-426.666667 426.666667-426.666667s426.666667 191.402667 426.666667 426.666667c0 113.493333-44.8 216.490667-117.418667 293.034667L796.16 682.069333z" fill="#979797" p-id="15230"></path></svg>
