<svg t="1780388927045" class="icon" viewBox="0 0 1570 1024" version="1.1" xmlns="http://www.w3.org/2000/svg" p-id="3048" width="200" height="200"><path d="M1248.723427 504.928927c58.312255-20.030325 119.060394-31.78916 177.320076-34.969829l0.008762-0.026287 0.017524 0.017524 0.017524 0.008762c31.298479-1.699861 61.887221-0.937552 90.977633 2.365786l0.008762 0-0.008762 0.008762c-6.606678 28.310578-16.464121 57.252032-29.186795 86.105865l0.017524 0.017524 0.008762 0-0.026287 0c-26.488046 60.055927-65.365804 119.69127-113.093355 172.185443 40.814197 6.13352 80.918659 16.078586 118.972772 29.230606l0.008762-0.017524 0.008762 0.026287 0.008762 0c26.452997 9.147708 51.907107 19.837558 75.915459 31.859258-1.077747 2.365786-2.21683 4.731573-3.417247 7.106122-11.504732 22.851745-27.434361 44.722126-46.947718 65.225609l-0.043811 0.061335 0 0.017524-0.026287-0.008762c-95.341194 100.160389-276.315096 167.874455-446.117228 159.094758-136.856365-7.088597-231.820786-62.053703-259.474201-137.92535 46.597231 37.510859 117.719782 62.255232 206.46306 66.837848 149.771807 7.736998 308.226927-44.029915 408.956857-125.080006-40.682765-13.222118-83.512262-22.781647-126.885014-27.960091l-0.341725 0.289152-0.297914-0.359249c-34.242568-4.065648-68.818099-5.397498-102.955522-3.627539-3.119333 0.157719-6.229904 0.350487-9.314189 0.552017l0.017524-0.008762c85.913097-61.028528 157.018123-147.353448 201.573768-236.736365-92.931597 8.394161-190.550956 38.132973-273.362244 87.963445l-35.600705 23.386237-0.192768 0.148957L1081.733952 670.709223l-0.008762 0c80.699605-117.43063 120.260812-268.814677 109.930211-392.475211-102.824089 51.985967-203.483922 151.874728-263.899098 269.086304-6.799446 19.592217-15.027125 37.756199-24.534082 54.255369l-0.008762 0.035049 0-0.017524c-5.441309 9.436859-11.303202 18.339226-17.568155 26.654527 15.465234-51.100987 22.422398-110.122978 18.689713-173.94664-7.106122-121.671521-51.477761-234.948882-115.397806-314.141393-67.591395 79.464138-114.907124 196.430373-122.276111 322.412883-1.953964 33.550357-0.955077 65.786388 2.672462 96.234936l0.008762 0.026287-0.008762-0.008762c3.277052 27.451885 8.692075 53.458012 16.017251 77.685417-27.11016-36.012527-46.798761-82.986532-56.962881-137.592388-70.561772-94.885561-162.6522-182.428422-242.274057-229.726627-3.022949 25.016001-4.083172 51.495285-2.891517 78.885835 2.435884 55.91142 13.888043 107.985008 31.613917 151.708247-60.082214-40.893057-105.776941-142.253863-110.929098-260.771003-1.384423-31.745349 0.254103-62.24647 4.468708-90.697243 13.257166 5.274828 26.417949 11.206818 39.456061 17.752161 5.48512 1.647288 10.979002 3.434771 16.455359 5.371211 13.406123 4.722811 26.78596 10.313077 40.078175 16.709462l0.008762 0 0 0.008762C484.171342 226.624818 560.735201 294.689371 621.150377 384.711926c0.516968-10.794996 1.340612-21.756473 2.505981-32.858145 10.768709-102.94676 47.937843-199.873907 100.055243-275.237349l-0.008762-0.008762 0.008762 0 0.017524-0.008762c20.056612-29.011552 42.321291-54.816148 66.154399-76.546335l-0.008762 0.008762 0.017524 0.043811c81.409341 78.964695 143.00741 205.849708 157.412421 343.485907 0.990125 9.428097 1.73491 18.75981 2.26064 27.977615 62.842298-81.716017 143.48933-147.493642 223.864734-182.770147l-0.008762-0.035049 0.008762 0 0.052573 0.008762c27.329215-11.995414 54.640905-20.459672 81.199048-24.823233l0.008762-0.008762 0.008762 0.008762 0.017524-0.008762-0.008762 0.035049c10.742423 24.884569 18.190269 52.713227 22.501258 82.530899l0.035049 0.087622 0.008762 0-0.026287 0.008762C1288.503688 324.787432 1278.190611 416.641281 1248.723427 504.928927M1081.742714 670.682936l-0.035049 0.026287L1081.742714 670.682936 1081.742714 670.682936z" fill="#999899" p-id="3049"></path><path d="M871.003714 544.157171c-10.374412-29.414612-28.135334-53.712115-50.277343-69.089727-35.618229-24.72685-45.756062-23.254805-48.437287 17.366625-10.742423 162.179043 143.00741 317.506067-36.494447 455.308747C542.238256 1096.629644 128.24315 1001.446169 0 801.712457c59.819349-37.142847 127.51589-61.063577 196.526757-74.127976C134.034946 656.996423 84.186949 567.403214 77.641607 471.78163c180.789896-9.620865 338.841956 32.568994 480.517516 157.57014 65.567334 57.865384 116.887375 123.923399 152.36541 191.742611C619.888625 687.07696 351.985214 561.742851 188.561943 548.801123c-4.100697-0.306676-8.175107-0.578303-12.240754-0.788595l1.314326 2.935328C219.930519 644.527852 300.218301 735.321479 408.623894 803.456129c0.008762 0-168.680574-13.23088-282.877963 19.513357 91.187925 68.45885 221.779337 111.358445 366.828333 111.358445 132.965961 0 269.629559-23.000702 262.497151-201.451098-2.996663-75.232009-43.022265-139.642736-44.564407-221.236082C706.984615 325.882703 887.660603 358.775897 871.003714 544.157171" fill="#999899" p-id="3050"></path></svg>
