<svg t="1775548118654" class="icon" viewBox="0 0 1024 1024" version="1.1" xmlns="http://www.w3.org/2000/svg" p-id="6824" width="400" height="400"><path d="M731.89876622 307.36004742L745.01688889 316.33605215a399.06326755 399.06326755 0 0 1-47.63860386 34.52048119 264.08580741 264.08580741 0 0 0 32.44881542-43.49648592q-12.08168297-7.59489422-24.85513482-14.4992332a224.38676859 224.38676859 0 0 0 28.99846637-78.36285155 14.843904 14.843904 0 0 1 17.26024059-12.08168297 14.843904 14.843904 0 0 1 12.42756741 17.2602406 268.91848059 268.91848059 0 0 1-31.75947378 86.99297185z m-445.66664533 13.80867792a260.97891555 260.97891555 0 0 1-44.18704119-146.02391704 428.40640475 428.40640475 0 0 1 17.26145422-96.65953185 14.843904 14.843904 0 0 1 28.99725275 7.59489422 418.39517392 418.39517392 0 0 0-16.22501452 89.06463763 230.25466785 230.25466785 0 0 0 40.38959407 130.83412859q-12.77223822 7.59489422-24.85513481 16.57089896a248.20667733 248.20667733 0 0 0 27.27147141 34.52048119 348.66244267 348.66244267 0 0 1-42.80471704-24.16457955c4.83145955-3.4527763 9.32067555-7.24900978 14.15213511-10.35590164z" fill="#cdcdcd" p-id="6825"></path><path d="M776.08580741 339.81007645a399.06326755 399.06326755 0 0 1 54.88882726 552.33498074c-32.79591348-88.37286875-106.32609185-121.16878222-190.21217185-121.16878222-103.56265718 0-150.51070578-41.0789357-150.51070579-118.06189038s44.531712-86.30120297 70.76795734-93.20675555a257.18146845 257.18146845 0 0 0 74.22073363-27.96202667c9.66534637-7.59368059 4.83267318-28.6513683-13.46400711-20.36591881a47.9844883 47.9844883 0 0 1-40.38959407 4.83267319c37.28270222 0 37.28270222-19.33190637 49.71026963-12.77345186s14.49923318 2.76222103 16.91556977 0 0-10.01001718 6.2137837-22.78346904a14.843904 14.843904 0 0 0-17.60612503-21.0576877 190.55562903 190.55562903 0 0 1-58.3391763-1.72578133 237.50489125 237.50489125 0 0 1-54.198272-20.02246163 379.73136118 379.73136118 0 0 0 249.93124504-100.11109452c-8.97479111-7.24900978-18.64135111-14.49923318-27.96202666-21.0576877a568.9058797 568.9058797 0 0 0 85.61307495-92.17152948 18.2966803 18.2966803 0 0 1 28.99725275 22.0941274A607.91557689 607.91557689 0 0 1 776.08580741 338.42896592z m-532.65961719 16.91556977c-97.00420267-69.04338963-152.58237155-179.51038578-165.3558234-329.67642073a18.2966803 18.2966803 0 0 1 16.57089896-19.67657719 18.2966803 18.2966803 0 0 1 19.67657719 16.56968534q17.95079585 215.7566483 158.79615525 310.68918518c-9.66534637 7.59489422-18.64135111 15.53445925-27.61614222 23.81990874a460.85522015 460.85522015 0 0 0 185.37828503 72.83962311c-6.55966815 4.48678875-11.73822578 10.35590163-18.29668028 15.87913008a150.16603497 150.16603497 0 0 0-163.63004208 2.76222103 118.06189037 118.06189037 0 0 0 146.36980148 34.52048119c17.26024059-6.55845452 28.99725275-6.55845452 28.99725274 0-73.18429392-3.79744711-128.417792 157.07037392-128.417792 337.96065659a290.66672355 290.66672355 0 0 0 60.06617126 186.06884029 398.71738311 398.71738311 0 0 1-112.53866193-651.75673363z" fill="#cdcdcd" p-id="6826"></path><path d="M311.43314015 304.25315556a399.06326755 399.06326755 0 0 1 392.84948385-12.77223822 232.67221808 232.67221808 0 0 1-155.69047703 110.1211117 333.81853867 333.81853867 0 0 1-69.042176 0c-19.33190637-2.41512297-37.97325748-5.177344-55.57816889-8.97479112a234.39799941 234.39799941 0 0 1-112.19399111-87.33885628z m-68.35162074 52.47249066l1.72578134 1.03522608 0.69055525-0.69055526-1.72578133-1.03522607-0.69176889 0.69055525zM776.08580741 339.81007645z m-489.85368652-18.64135111v-1.72578134z m445.66664533-13.80867792z" fill="#cdcdcd" p-id="6827"></path></svg>
