<svg t="1772441779573" class="icon" viewBox="0 0 1110 1024" version="1.1" xmlns="http://www.w3.org/2000/svg" p-id="12505" width="200" height="200"><path d="M1018.211797 313.708475H92.567864v569.118372a58.012203 58.012203 0 0 0 58.012204 58.012204h809.619525a58.012203 58.012203 0 0 0 58.012204-58.012204V313.717153z" fill="#EFEFEF" p-id="12506"></path><path d="M185.127051 278.085424h740.516881V848.271186H185.135729z" fill="#20BEE1" p-id="12507"></path><path d="M1087.635525 256.720271H954.576271l-85.530034-231.415322h104.526102l114.063186 231.415322z" fill="#EFEFEF" p-id="12508"></path><path d="M954.576271 256.720271H23.144136C61.162305 179.590508 99.189153 102.460746 137.198644 25.304949h731.838915L954.576271 256.720271z" fill="#D9454A" p-id="12509"></path><path d="M954.576271 256.720271H821.517017c-19.004746-77.129763-38.026847-154.259525-57.022915-231.415322h104.552135L954.576271 256.720271z" fill="#D9454A" p-id="12510"></path><path d="M821.517017 256.720271H156.20339l85.530034-231.415322h522.760678l57.014237 231.415322z" fill="#EFEFEF" p-id="12511"></path><path d="M821.517017 256.720271H688.449085c-9.511051-77.129763-18.996068-154.259525-28.507119-231.415322h104.552136l57.014237 231.415322z" fill="#EFEFEF" p-id="12512"></path><path d="M688.449085 256.720271h-399.186441c19.004746-77.129763 38.026847-154.259525 57.022915-231.415322h313.656407l28.507119 231.415322z" fill="#D9454A" p-id="12513"></path><path d="M688.449085 256.720271H555.389831V25.304949h104.552135l28.507119 231.415322z" fill="#D9454A" p-id="12514"></path><path d="M555.389831 25.304949v231.415322H422.330576c9.511051-77.129763 18.996068-154.259525 28.507119-231.415322H555.389831z" fill="#EFEFEF" p-id="12515"></path><path d="M23.144136 256.728949H156.20339v59.574237a56.129085 56.129085 0 0 1-56.129085 56.129085H79.27322a56.129085 56.129085 0 0 1-56.129084-56.137763v-59.565559z" fill="#D9454A" p-id="12516"></path><path d="M156.20339 256.728949h133.059254v59.574237a56.129085 56.129085 0 0 1-56.129085 56.129085h-20.801084A56.129085 56.129085 0 0 1 156.20339 316.303186v-59.574237z" fill="#EFEFEF" p-id="12517"></path><path d="M289.262644 256.728949h133.067932v59.574237a56.129085 56.129085 0 0 1-56.137762 56.129085h-20.801085a56.129085 56.129085 0 0 1-56.129085-56.129085v-59.574237z" fill="#D9454A" p-id="12518"></path><path d="M422.330576 256.728949H555.389831v59.574237a56.129085 56.129085 0 0 1-56.129085 56.129085h-20.801085a56.129085 56.129085 0 0 1-56.129085-56.129085v-59.574237z" fill="#EFEFEF" p-id="12519"></path><path d="M555.389831 256.728949h133.059254v59.574237a56.129085 56.129085 0 0 1-56.129085 56.129085h-20.801085A56.129085 56.129085 0 0 1 555.389831 316.303186v-59.574237z" fill="#D9454A" p-id="12520"></path><path d="M688.449085 256.728949h133.067932v59.574237a56.129085 56.129085 0 0 1-56.137763 56.129085h-20.792407a56.129085 56.129085 0 0 1-56.137762-56.129085v-59.574237z" fill="#EFEFEF" p-id="12521"></path><path d="M821.517017 256.728949H954.576271v59.574237a56.129085 56.129085 0 0 1-56.129085 56.129085h-20.801084a56.129085 56.129085 0 0 1-56.129085-56.129085v-59.574237z" fill="#D9454A" p-id="12522"></path><path d="M954.576271 256.728949h133.059254v59.574237a56.129085 56.129085 0 0 1-56.129084 56.129085h-20.801085A56.129085 56.129085 0 0 1 954.576271 316.303186v-59.574237z" fill="#EFEFEF" p-id="12523"></path><path d="M188.598237 848.262508m-150.415186 0a150.415186 150.415186 0 1 0 300.830373 0 150.415186 150.415186 0 1 0-300.830373 0Z" fill="#F7862D" p-id="12524"></path><path d="M1110.736271 256.676881c0-3.479864-0.754983-6.968407-2.343051-10.187932L994.338712 15.064949A23.144136 23.144136 0 0 0 973.581017 2.160814H137.198644a23.135458 23.135458 0 0 0-20.749017 12.912813L2.377763 246.488949a23.04 23.04 0 0 0-2.334373 10.19661L0 256.728949v59.574237c0 40.369898 30.346847 73.762712 69.423729 78.631051v327.34156c-33.453559 31.665898-54.384814 76.418169-54.384814 126.004067 0 95.70061 77.858712 173.559322 173.559322 173.559322 51.28678 0 97.427525-22.380475 129.223594-57.856h642.377762c44.752271 0 81.156339-36.404068 81.156339-81.156339V394.942915c39.076881-4.868339 69.423729-38.269831 69.423729-78.639729v-59.574237l-0.04339-0.052068zM902.508475 515.818305H795.804203a23.144136 23.144136 0 0 0 0 46.279593H902.508475v263.037831H360.569492c-10.491661-78.362034-73.450305-140.33139-152.298306-149.269695v-113.768136h408.766916a23.144136 23.144136 0 0 0 0-46.279593H208.271186V395.472271c1.345085 0.069424 2.698847 0.104136 4.061289 0.104136h20.801084a79.021559 79.021559 0 0 0 56.129085-23.361085 79.030237 79.030237 0 0 0 56.129085 23.361085h20.801085a79.021559 79.021559 0 0 0 56.129084-23.361085 79.030237 79.030237 0 0 0 56.137763 23.361085h20.801085A79.021559 79.021559 0 0 0 555.389831 372.215322a79.030237 79.030237 0 0 0 56.129084 23.361085h20.801085a79.021559 79.021559 0 0 0 56.129085-23.361085 79.030237 79.030237 0 0 0 56.129084 23.361085h20.801085a79.021559 79.021559 0 0 0 56.129085-23.361085 79.030237 79.030237 0 0 0 56.137763 23.361085h20.792406c1.362441 0 2.716203-0.034712 4.061289-0.104136L902.508475 515.809627zM578.525288 48.449085h60.954034l22.805695 185.127051h-83.751051V48.449085z m274.397288 0l68.425763 185.127051h-81.703051L794.02522 48.449085h58.906034z m78.50956 267.854101a33.028339 33.028339 0 0 1-32.98495 32.98495h-20.801084a33.028339 33.028339 0 0 1-32.993627-32.98495V279.864407h86.779661v36.438779z m-752.084611 0V279.864407h86.779661v36.438779a33.028339 33.028339 0 0 1-32.993627 32.98495H212.349831a33.028339 33.028339 0 0 1-32.993628-32.98495zM312.40678 279.864407h86.779661v36.438779a33.028339 33.028339 0 0 1-32.984949 32.98495h-20.801085A33.028339 33.028339 0 0 1 312.40678 316.311864V279.864407z m133.059254 0h86.779661v36.438779a33.028339 33.028339 0 0 1-32.984949 32.98495h-20.801085a33.028339 33.028339 0 0 1-32.984949-32.98495V279.864407z m133.067932 0h86.779661v36.438779a33.028339 33.028339 0 0 1-32.993627 32.98495H611.536271a33.028339 33.028339 0 0 1-32.993627-32.98495V279.864407z m133.059254 0h86.779661v36.438779a33.028339 33.028339 0 0 1-32.993627 32.98495h-20.792407A33.028339 33.028339 0 0 1 711.59322 316.311864V279.864407z m338.839865-46.288271h-79.741831l-68.425762-185.127051h56.918779l91.240136 185.127051zM746.357153 48.449085l45.620067 185.127051H708.903051L686.106034 48.449085h60.251119z m-214.111458 0v185.127051h-83.751051L471.300339 48.449085h60.945356z m-107.572068 0l-22.814373 185.127051h-83.056813l45.61139-185.127051h60.259796z m-107.927864 0l-45.61139 185.127051h-81.711729l68.425763-185.127051H316.745763z m-165.141695 0h56.910101l-68.43444 185.127051H60.346576L151.604068 48.449085zM46.270915 316.303186V279.864407h86.779661v36.438779a33.028339 33.028339 0 0 1-32.984949 32.98495H79.27322a33.028339 33.028339 0 0 1-32.993627-32.98495z m69.423729 77.711187A79.212475 79.212475 0 0 0 156.20339 372.215322c1.839729 1.848407 3.766237 3.610034 5.788203 5.267525v299.277017c-16.288542 2.51661-31.813424 7.341559-46.288271 14.066983V394.014373z m72.894915 581.536542c-70.178712 0-127.279729-57.092339-127.279728-127.271051 0-70.18739 57.101017-127.279729 127.279728-127.279728S315.877966 778.101153 315.877966 848.279864s-57.101017 127.271051-127.279729 127.271051z m771.601356-57.847322h-612.577627a172.101424 172.101424 0 0 0 12.947526-46.288271h565.083118a23.144136 23.144136 0 0 0 23.135458-23.135458V377.482847c2.021966-1.657492 3.948475-3.419119 5.788203-5.267525a79.212475 79.212475 0 0 0 40.500068 21.799051v488.812474a34.911458 34.911458 0 0 1-34.876746 34.876746z m104.300475-601.400407a33.028339 33.028339 0 0 1-32.993627 32.98495h-20.792407a33.028339 33.028339 0 0 1-32.993627-32.98495V279.864407h86.779661v36.438779z" fill="#231F20" p-id="12525"></path><path d="M709.024542 515.818305h-2.317017a23.144136 23.144136 0 0 0 0 46.279593h2.317017a23.144136 23.144136 0 0 0 0-46.279593zM251.886644 784.991458a23.144136 23.144136 0 0 0-32.72461 0L125.309831 878.834983a23.144136 23.144136 0 0 0 32.72461 32.733288l93.852203-93.852203a23.144136 23.144136 0 0 0 0-32.72461zM136.981695 821.681898a23.144136 23.144136 0 0 0 23.144136-23.144135v-1.874441a23.144136 23.144136 0 0 0-46.288272 0v1.874441a23.144136 23.144136 0 0 0 23.144136 23.144135zM239.746169 876.283661a23.144136 23.144136 0 0 0-23.135457 23.144136v1.87444a23.144136 23.144136 0 0 0 46.279593 0v-1.87444a23.144136 23.144136 0 0 0-23.144136-23.144136z" fill="#231F20" p-id="12526"></path></svg>
