<svg xmlns="http://www.w3.org/2000/svg" viewBox="0 0 24 24" fill="none">
  <!-- Phosphor Icons (MIT). License: /licenses/phosphor-icons.txt -->
  <g transform="scale(0.09375 0.09375)">
    <g fill="var(--menu-icon-production-primary, #009cb5)">
    <path fill="var(--menu-icon-production-accent, #22d3ee)" d="m185 127l-58 58a24 24 0 0 1-33.94 0L71 162.91A24 24 0 0 1 71 129l58-58a24 24 0 0 1 33.94 0L185 93.09a24 24 0 0 1 0 33.91" opacity="0.32"/>
    <path d="M237.66 18.34a8 8 0 0 0-11.32 0l-52.4 52.41l-5.37-5.38a32.05 32.05 0 0 0-45.26 0L100 88.69l-6.34-6.35a8 8 0 0 0-11.32 11.32l6.35 6.34l-23.32 23.31a32 32 0 0 0 0 45.26l5.38 5.37l-52.41 52.4a8 8 0 0 0 11.32 11.32l52.4-52.41l5.37 5.38a32.06 32.06 0 0 0 45.26 0L156 167.31l6.34 6.35a8 8 0 0 0 11.32-11.32l-6.35-6.34l23.32-23.31a32 32 0 0 0 0-45.26l-5.38-5.37l52.41-52.4a8 8 0 0 0 0-11.32m-116.29 161a16 16 0 0 1-22.62 0l-22.06-22.09a16 16 0 0 1 0-22.62L100 111.31L144.69 156Zm57.94-57.94L156 144.69L111.31 100l23.32-23.31a16 16 0 0 1 22.62 0l22.06 22a16 16 0 0 1 0 22.63ZM88.57 35a8 8 0 0 1 14.86-6l8 20a8 8 0 0 1-14.86 6Zm-64 58A8 8 0 0 1 35 88.57l20 8a8 8 0 0 1-6 14.86l-20-8A8 8 0 0 1 24.57 93m206.86 70a8 8 0 0 1-10.4 4.46l-20-8a8 8 0 1 1 5.97-14.89l20 8a8 8 0 0 1 4.43 10.43m-64 58.06a8 8 0 0 1-14.86 5.94l-8-20a8 8 0 0 1 14.86-6Z"/>
    </g>
  </g>
</svg>
