<svg xmlns="http://www.w3.org/2000/svg" viewBox="0 0 24 24" fill="none">
  <!-- Phosphor Icons (MIT). License: /licenses/phosphor-icons.txt -->
  <g transform="scale(0.09375 0.09375)">
    <g fill="currentColor">
    <path fill="currentColor" d="M224 128a96 96 0 1 1-96-96a96 96 0 0 1 96 96" opacity="0.32"/>
    <path d="M72 128a134.6 134.6 0 0 1-14.16 60.47a8 8 0 1 1-14.32-7.12A118.8 118.8 0 0 0 56 128a71.73 71.73 0 0 1 27-56.2a8 8 0 1 1 10 12.49A55.76 55.76 0 0 0 72 128m56-8a8 8 0 0 0-8 8a184.1 184.1 0 0 1-23 89.1a8 8 0 0 0 14 7.76A200.2 200.2 0 0 0 136 128a8 8 0 0 0-8-8m0-32a40 40 0 0 0-40 40a8 8 0 0 0 16 0a24 24 0 0 1 48 0a214.1 214.1 0 0 1-20.51 92a8 8 0 1 0 14.51 6.83A230 230 0 0 0 168 128a40 40 0 0 0-40-40m0-64A104.11 104.11 0 0 0 24 128a87.8 87.8 0 0 1-5 29.33a8 8 0 0 0 15.09 5.33A103.9 103.9 0 0 0 40 128a88 88 0 0 1 176 0a282 282 0 0 1-5.29 54.45a8 8 0 0 0 6.3 9.4a8 8 0 0 0 1.55.15a8 8 0 0 0 7.84-6.45A298.4 298.4 0 0 0 232 128A104.12 104.12 0 0 0 128 24M94.4 152.17a8 8 0 0 0-9.4 6.25a151 151 0 0 1-17.21 45.44a8 8 0 0 0 13.86 8a166.7 166.7 0 0 0 19-50.25a8 8 0 0 0-6.25-9.44M128 56a73 73 0 0 0-9 .56a8 8 0 0 0 2 15.87A56.08 56.08 0 0 1 184 128a252 252 0 0 1-1.92 31a8 8 0 0 0 6.92 9a8 8 0 0 0 1 .06a8 8 0 0 0 7.92-7a267 267 0 0 0 2-33A72.08 72.08 0 0 0 128 56m57.93 128.25a8 8 0 0 0-9.75 5.75c-1.46 5.69-3.15 11.4-5 17a8 8 0 0 0 5 10.13a7.9 7.9 0 0 0 2.55.42a8 8 0 0 0 7.58-5.46c2-5.92 3.79-12 5.35-18.05a8 8 0 0 0-5.72-9.78Z"/>
    </g>
  </g>
</svg>
