<svg xmlns="http://www.w3.org/2000/svg" viewBox="0 0 24 24" fill="none">
  <!-- Phosphor Icons (MIT). License: /licenses/phosphor-icons.txt -->
  <g transform="scale(0.09375 0.09375)">
    <g fill="var(--menu-icon-system-primary, #4f66e8)">
    <path fill="var(--menu-icon-system-accent, #8b5cf6)" d="M208 72v112a8 8 0 0 1-8 8h-24v-88l-40-40H80V40a8 8 0 0 1 8-8h80Z" opacity="0.32"/>
    <path d="m213.66 66.34l-40-40A8 8 0 0 0 168 24H88a16 16 0 0 0-16 16v16H56a16 16 0 0 0-16 16v144a16 16 0 0 0 16 16h112a16 16 0 0 0 16-16v-16h16a16 16 0 0 0 16-16V72a8 8 0 0 0-2.34-5.66M168 216H56V72h76.69L168 107.31zm32-32h-16v-80a8 8 0 0 0-2.34-5.66l-40-40A8 8 0 0 0 136 56H88V40h76.69L200 75.31Zm-56-32a8 8 0 0 1-8 8H88a8 8 0 0 1 0-16h48a8 8 0 0 1 8 8m0 32a8 8 0 0 1-8 8H88a8 8 0 0 1 0-16h48a8 8 0 0 1 8 8"/>
    </g>
  </g>
</svg>
