<svg t="1752242902784" class="icon" viewBox="0 0 1024 1024" version="1.1" xmlns="http://www.w3.org/2000/svg" p-id="8892" width="200" height="200"><path d="M513.536 64c-48.576 0-91.712 39.936-91.712 89.6v15.104a270.912 270.912 0 0 0-178.112 253.632V583.68l-75.52 99.84c-16.192 27.008-21.632 63.104-5.44 93.376 16.192 29.632 48.64 48.576 80.96 48.576h134.912c0 74.432 59.392 134.4 134.912 134.4 70.144 0 134.912-59.968 134.912-134.4h134.912c32.384 0 59.392-18.944 75.52-48.64 16.192-30.208 16.192-66.304-5.376-93.312L783.36 583.68V422.336c0-117.12-75.52-216.384-183.488-253.632V153.6c0-49.664-37.76-89.6-86.336-89.6z m43.2 671.872H243.712l64.768-89.6 5.376-9.728c10.816-15.616 16.192-33.92 16.192-52.864V422.336c0-98.752 80.96-179.2 183.488-179.2 97.152 0 178.112 80.448 178.112 179.2V583.68c0 18.88 5.376 37.248 16.192 52.864l5.376 9.728 70.144 89.6H556.736z m-43.2 134.4c-27.008 0-48.576-20.032-48.576-44.8H556.8c0 24.768-21.632 44.8-43.2 44.8z m226.624-733.44c5.44-22.656 32.384-33.92 59.392-24.832l-16.192 41.6 16.192-41.6v1.088c0 0.576 5.376 1.664 5.376 2.688a59.2 59.2 0 0 1 16.192 8.64c10.816 7.552 27.008 19.456 37.76 36.16 32.384 35.648 54.016 90.112 54.016 172.16 0 24.832-16.192 44.8-43.2 44.8-21.568 0-43.136-19.968-43.136-44.8 0-61.504-21.632-96-37.76-114.368-5.44-9.728-16.256-16.192-21.632-19.456 0-2.176 0-3.2-5.376-3.776-21.632-9.728-32.384-35.648-21.632-58.24z m-512.64-24.832c21.568-9.152 48.576 2.176 59.392 24.832 5.376 22.656-5.44 48.64-27.008 58.304 0 0.512-5.376 1.6-5.376 3.776-5.44 3.2-16.192 9.728-21.632 19.456-16.192 18.304-32.384 52.864-32.384 114.368 0 24.832-21.568 44.8-48.512 44.8-21.632 0-43.2-19.968-43.2-44.8 0-82.048 27.008-136.512 53.952-172.16 16.192-16.704 32.384-28.608 43.2-36.16 5.376-3.776 10.752-7.04 10.752-8.64 5.44-1.024 5.44-2.112 5.44-2.688l5.376-0.512V112l16.192 41.6-16.192-41.6z" fill="#e6e6e6" p-id="8893"></path></svg>
