<svg t="1752303696565" class="icon" viewBox="0 0 1024 1024" version="1.1" xmlns="http://www.w3.org/2000/svg" p-id="25915" width="200" height="200"><path d="M512 51.2a460.8 460.8 0 1 0 460.8 460.8A460.8 460.8 0 0 0 512 51.2z m-147.285333 512a59.221333 59.221333 0 1 1 29.525333-51.2 58.88 58.88 0 0 1-29.525333 51.2z m147.285333 7.850667A59.050667 59.050667 0 1 1 570.88 512 59.050667 59.050667 0 0 1 512 571.050667zM718.336 563.2a59.221333 59.221333 0 1 1 29.525333-51.2 58.88 58.88 0 0 1-29.525333 51.2z" fill="#ffffff" p-id="25916"></path></svg>
