<svg t="1783473680025" class="icon" viewBox="0 0 1024 1024" version="1.1" xmlns="http://www.w3.org/2000/svg" p-id="2441" width="200" height="200"><path d="M224 160a32 32 0 0 0-32 32v640a32 32 0 0 0 32 32h288v64H224a96 96 0 0 1-96-96V192a96 96 0 0 1 96-96h457.536a96 96 0 0 1 60 21.024l118.432 94.784A96 96 0 0 1 896 286.72V544h-64V286.752a32 32 0 0 0-12-24.96l-118.464-94.784A32 32 0 0 0 681.536 160H224z" p-id="2442"></path><path d="M704 800v128h64v-128h128v-64h-128v-128h-64v128h-128v64h128zM288 320h320v64H288v-64zM288 480h320v64H288v-64z" p-id="2443"></path></svg>
