<svg t="1754530354893" class="icon" viewBox="0 0 1024 1024" version="1.1" xmlns="http://www.w3.org/2000/svg" p-id="12353" width="200" height="200"><path d="M936.96 268.288L533.76 57.92a44.8 44.8 0 0 0-41.216-0.128l-403.2 207.104a44.8 44.8 0 0 0-24.32 39.808v428.224a44.8 44.8 0 0 0 24.832 40.128l403.2 200.96a44.8 44.8 0 0 0 40 0l403.2-200.96a44.8 44.8 0 0 0 24.832-40.064v-424.96a44.8 44.8 0 0 0-24.128-39.744zM509.696 470.72L358.336 396.224l342.848-183.552 147.84 77.12-339.328 180.928z m3.2-356.224L637.12 179.2 292.352 363.776l-135.232-66.56 355.84-182.72zM124.8 347.904l142.976 70.4v156.992a29.888 29.888 0 0 0 59.776 0V447.68L483.2 524.224v378.24l-358.4-178.752V347.904zM542.912 902.4V520.64l358.4-191.04v394.112l-358.4 178.688z" p-id="12354" fill="#ffffff"></path></svg>
