<svg t="1755681230239" class="icon" viewBox="0 0 1024 1024" version="1.1" xmlns="http://www.w3.org/2000/svg" p-id="5608" width="200" height="200"><path d="M529.92 504.32c-56.32 0-102.144 47.872-102.144 104.192s41.728 104.192 99.84 104.192h2.048c6.144-22.784 16.64-45.824 29.184-64.512 18.688-25.088 41.728-47.872 68.608-60.416-8.448-45.824-45.824-83.2-97.792-83.2zM792.32 160.768c-18.688 0-33.28 14.592-33.28 33.28 0 16.64 14.592 31.232 33.28 31.232 16.64 0 31.232-14.592 31.232-31.232 0-18.688-14.592-33.28-31.232-33.28z m0 0c-18.688 0-33.28 14.592-33.28 33.28 0 16.64 14.592 31.232 33.28 31.232 16.64 0 31.232-14.592 31.232-31.232 0-18.688-14.592-33.28-31.232-33.28z m0-85.248c-43.776 0-83.2 20.736-104.192 58.368l-343.552 12.544v27.136h-56.32c-14.592-58.368-62.464-97.792-118.784-97.792-33.28 0-60.416 10.496-83.2 33.28l33.28 31.232c14.592-10.496 31.232-18.688 49.92-18.688 39.68 2.048 70.912 33.28 70.912 72.96s-31.232 70.912-70.912 70.912c-18.688 0-35.328-6.144-47.872-16.64L86.272 284.16c22.784 16.64 49.92 31.232 83.2 31.232 56.32 0 106.24-39.68 118.784-91.648h60.416v25.088l320.768 10.496-150.016 154.112c-104.192 2.048-189.44 91.648-189.44 199.936 0 51.968 20.736 102.144 58.368 139.52l-72.96 145.664h245.76a251.392 251.392 0 0 1-22.784-41.728c-12.544-27.136-16.64-54.016-16.64-85.248v-8.448c-83.2-4.096-147.712-68.608-147.712-152.064v-2.048c-2.048-83.2 66.56-152.064 152.064-154.112h2.048c68.608 0 129.024 47.872 147.712 112.384 14.592-6.144 29.184-8.448 43.776-8.448v-4.096l79.104-235.264c64.512-4.096 110.336-58.368 110.336-118.784 0-70.912-51.968-124.928-116.48-124.928z m0 197.888c-43.776-2.048-79.104-35.328-79.104-79.104s35.328-75.008 75.008-75.008 75.008 35.328 75.008 75.008-31.232 79.104-70.912 79.104z m0-112.384c-18.688 0-33.28 14.592-33.28 33.28 0 16.64 14.592 31.232 33.28 31.232 16.64 0 31.232-14.592 31.232-31.232 0-18.688-14.592-33.28-31.232-33.28zM529.92 504.576c-56.32 0-102.144 47.872-102.144 104.192s41.728 104.192 99.84 104.192h2.048c6.144-22.784 16.64-45.824 29.184-64.512 18.688-25.088 41.728-47.872 68.608-60.416-8.448-45.824-45.824-83.2-97.792-83.2zM792.32 160.768c-18.688 0-33.28 14.592-33.28 33.28 0 16.64 14.592 31.232 33.28 31.232 16.64 0 31.232-14.592 31.232-31.232 0-18.688-14.592-33.28-31.232-33.28zM529.92 504.32c-56.32 0-102.144 47.872-102.144 104.192s41.728 104.192 99.84 104.192h2.048c6.144-22.784 16.64-45.824 29.184-64.512 18.688-25.088 41.728-47.872 68.608-60.416-8.448-45.824-45.824-83.2-97.792-83.2zM792.32 160.768c-18.688 0-33.28 14.592-33.28 33.28 0 16.64 14.592 31.232 33.28 31.232 16.64 0 31.232-14.592 31.232-31.232 0-18.688-14.592-33.28-31.232-33.28z" p-id="5609"></path><path d="M768 751.104c-4.352 0-4.352 2.304-8.704 0l-148.48-70.144c-4.352-2.304-4.352-7.168 0-9.728l144.128-67.84c4.352-2.304 6.656-2.304 13.056 0l148.48 67.84c2.304 2.304 2.304 7.168 0 9.728L768 751.104z m4.352 186.368c0 4.864 2.304 7.168 6.656 7.168l141.824-82.176c6.656-4.864 6.656-9.728 6.656-19.456v-140.288c0-4.864-2.304-7.168-6.656-7.168l-141.824 67.84c-6.656 2.304-6.656 4.864-6.656 9.728v164.608z m-24.064-174.336l-141.824-67.84c-2.304 0-4.352 0-4.352 2.304-2.304 2.304-2.304 4.864-2.304 4.864v159.744c0 2.304 0 4.864 6.656 7.168l141.824 75.008c4.352 0 6.656-2.304 6.656-7.168v-164.608c0-4.864 0-7.168-6.656-9.728z m-45.824 38.656c-17.408-9.728-37.12-19.456-54.528-26.624-2.304-2.304-4.352-2.304-4.352-4.864v-16.896c0-2.304 2.304-4.864 4.352-4.864l56.832 26.624q4.352 2.304 4.352 14.592v7.168c-2.304 2.304-4.352 4.864-6.656 4.864z" p-id="5610"></path></svg>
