<svg t="1755066838824" class="icon" viewBox="0 0 1024 1024" version="1.1" xmlns="http://www.w3.org/2000/svg" p-id="17945" width="200" height="200"><path d="M0 950.848m36.544 0l950.912 0q36.544 0 36.544 36.544l0 0.064q0 36.544-36.544 36.544l-950.912 0q-36.544 0-36.544-36.544l0-0.064q0-36.544 36.544-36.544Z" fill="#87AFD8" p-id="17946"></path><path d="M128 0h768a128 128 0 0 1 128 128v621.696a128 128 0 0 1-128 128H128a128 128 0 0 1-128-128V128a128 128 0 0 1 128-128z m626.88 264a169.728 169.728 0 1 0 169.664 169.728c-46.528-0.192-103.104-0.192-169.664 0 0.576-113.152 0.576-169.728 0-169.728zM947.2 411.072a169.728 169.728 0 0 0-169.728-169.728c0.64 0 0.64 56.576 0 169.728 66.56-0.192 123.136-0.192 169.728 0zM182.848 219.52a36.544 36.544 0 1 0 0 73.088h219.456a36.544 36.544 0 1 0 0-73.088H182.848z m0 420.544a36.544 36.544 0 0 0 0 73.152h402.304a36.544 36.544 0 1 0 0-73.152H182.848z m0-210.304a36.544 36.544 0 0 0 0 73.152H475.52a36.544 36.544 0 0 0 0-73.152H182.848z" fill="#87AFD8" p-id="17947"></path></svg>
