<svg t="1783581914589" class="icon" viewBox="0 0 1024 1024" version="1.1" xmlns="http://www.w3.org/2000/svg" p-id="21119" width="200" height="200"><path d="M472.948364 590.359273v225.675636L304.360727 907.636364v-225.675637l168.587637-91.601454zM721.454545 488.727273a209.454545 209.454545 0 1 1 0 418.909091 209.454545 209.454545 0 0 1 0-418.909091zM116.363636 588.567273l59.019637 32.069818-0.093091 69.352727 24.785454 11.473455v-67.421091l84.875637 46.126545v225.675637L116.363636 814.242909V588.567273zM709.957818 628.363636h-0.814545c-0.069818 0-0.139636 0-0.186182 0.046546h-0.209455l-0.232727 0.023273-0.162909 0.023272-0.279273 0.046546h-0.139636c-0.069818 0.046545-0.186182 0.069818-0.256 0.069818l-0.139636 0.046545-0.232728 0.069819-0.162909 0.046545c-0.069818 0-0.162909 0.023273-0.232727 0.069818l-0.139636 0.069818-0.209455 0.069819-0.093091 0.046545-0.279273 0.116364-0.186181 0.093091-0.139637 0.069818-0.232727 0.116363-0.116364 0.093091-0.232727 0.116364c-0.046545 0-0.069818 0.046545-0.116364 0.093091-0.093091 0.023273-0.162909 0.093091-0.232727 0.139636l-0.116364 0.069818-0.232727 0.162909-0.116363 0.116364-0.186182 0.139636c-0.069818 0.023273-0.116364 0.069818-0.162909 0.139637l-0.139637 0.116363a1.861818 1.861818 0 0 0-0.302545 0.279273l-72.704 72.890182-0.186182 0.186182a8.331636 8.331636 0 0 0 0 11.799273l0.186182 0.162909 72.704 72.936727c1.629091 1.629091 3.816727 2.466909 5.957818 2.443636h0.093091c4.584727 0 8.308364-3.723636 8.308364-8.331636v-32.535273h85.643636a13.847273 13.847273 0 0 0 10.868364-11.543273V680.96a13.847273 13.847273 0 0 0-13.73091-12.427636h-11.054545v-0.023273h-67.770182a5.329455 5.329455 0 0 1-4.142545-4.421818V636.509091c0-0.256 0-0.325818-0.046546-0.395636v-0.116364l-0.023272-0.232727-0.023273-0.279273-0.046546-0.232727-0.023272-0.162909-0.069819-0.256v-0.139637l-0.069818-0.232727c0-0.046545 0-0.093091-0.046545-0.139636a0.721455 0.721455 0 0 0-0.069818-0.232728l-0.069819-0.162909-0.069818-0.209454-0.069818-0.162909-0.162909-0.395637-0.069818-0.139636-0.116364-0.232727-0.069818-0.116364-0.116364-0.232727-0.093091-0.116364-0.139636-0.232727-0.093091-0.116364-0.162909-0.232727-0.093091-0.093091-0.139636-0.186182-0.139637-0.162909-0.069818-0.069818-0.325818-0.395637c-0.116364-0.093091-0.232727-0.162909-0.325818-0.279272l-0.139636-0.116364-0.16291-0.139636-0.162909-0.139637-0.139636-0.116363-0.232727-0.162909-0.093091-0.069819-0.232727-0.139636-0.116364-0.093091-0.232727-0.116363-0.116364-0.069819-0.232727-0.116363-0.139637-0.069818-0.186181-0.093091-0.186182-0.069819-0.186182-0.069818-0.209455-0.069818-0.162909-0.069818-0.232727-0.069818-0.116364-0.046546-0.232727-0.069818-0.162909-0.046545-0.256-0.046546-0.139636-0.023273a1.163636 1.163636 0 0 0-0.279273-0.046545h-0.162909c-0.069818-0.046545-0.162909-0.046545-0.232727-0.046545h-0.093091l-0.302546-0.023273zM379.112727 532.945455l81.826909 41.169454-167.214545 90.833455-82.850909-45.032728 168.261818-86.970181z m-79.453091-39.936l52.130909 26.228363-167.168 86.411637-57.6-31.301819 172.637091-81.338181z m27.042909-251.880728l59.019637 32.069818v46.964364l24.715636 11.543273v-45.102546l84.852364 46.126546v225.675636l-168.587637-91.601454V241.105455z m357.143273-3.723636v219.298909a244.177455 244.177455 0 0 0-154.344727 90.228364l-14.242909 7.749818v-225.675637l168.587636-91.601454z m-94.626909-58.717091l81.757091 41.099636-167.098182 92.834909-82.781091-45.009454 168.122182-88.925091zM510.859636 139.636364l61.207273 30.161454-167.098182 88.436364-66.722909-35.234909L510.836364 139.636364z" fill="#2192F6" p-id="21120"></path></svg>
