<svg t="1776080605047" class="icon" viewBox="0 0 1024 1024" version="1.1" xmlns="http://www.w3.org/2000/svg" p-id="1431" width="200" height="200"><path d="M0.000358 0.000358m255.999911 0l511.999821 0q255.99991 0 255.99991 255.999911l0 511.999821q0 255.99991-255.99991 255.99991l-511.999821 0q-255.99991 0-255.999911-255.99991l0-511.999821q0-255.99991 255.999911-255.999911Z" fill="#00AAA6" p-id="1432"></path><path d="M913.556519 45.378903A204.851128 204.851128 0 0 1 921.600036 102.400323v614.399785c0 113.10588-91.694048 204.799928-204.799928 204.799928H102.400323a204.851128 204.851128 0 0 1-57.02142-8.043517A254.822311 254.822311 0 0 1 0.000358 768.00009V256.000269C0.000358 114.616638 114.616638 0.000358 256.000269 0.000358h511.999821a254.822311 254.822311 0 0 1 145.556429 45.378545z" fill="#19B2AF" p-id="1433"></path><path d="M768.00009 0.000358v639.999776c0 70.691815-57.30814 127.999955-127.999956 127.999956H0.000358V256.000269C0.000358 114.616638 114.616638 0.000358 256.000269 0.000358h511.999821z" fill="#30BAB7" p-id="1434"></path><path d="M563.200161 0.000358v460.799839c0 56.5555-45.844464 102.399964-102.399964 102.399964H0.000358V256.000269C0.000358 114.616638 114.616638 0.000358 256.000269 0.000358h307.199892z" fill="#45C1BE" p-id="1435"></path><path d="M307.200251 0.000358v204.799929c0 56.5555-45.844464 102.399964-102.399964 102.399964H0.000358V256.000269C0.000358 114.616638 114.616638 0.000358 256.000269 0.000358h51.199982z" fill="#58C7C5" p-id="1436"></path><path d="M465.019076 846.131262c14.223355 7.598077 30.458869 11.632636 46.996463 11.632636 16.916474 0 32.855029-4.085759 47.457264-12.124156l215.106484-116.889559 26.506231-14.243835c28.93311-15.948794 46.914544-45.399024 46.914544-76.851173V371.184868c0-18.047994-5.693438-35.430388-16.399355-50.196462-2.319359-2.897919-6.266878-7.598077-7.628797-8.616957-13.240315-10.501116-22.231032-15.462395-38.548466-24.468471L678.302841 228.505878l-100.659165-55.97182a138.987471 138.987471 0 0 0-65.633257-16.537594c-23.756792 0-46.172144 5.575678-66.611176 16.537594L343.245038 228.516118l-92.815327 50.585583-27.545591 15.231994c-13.020155 6.988798-23.726072 17.233914-31.897588 30.49983-9.809917 14.428155-14.986235 30.632949-14.986235 46.842863v266.465187c0 31.027189 17.786874 60.303339 46.392304 76.364773l28.49791 15.226875 214.128565 116.398039z m2.124799-619.069223c12.723196-6.809598 24.765431-12.451836 43.397105-12.451836 13.788155 0 31.354869 5.990398 53.642221 18.303994l22.666232 11.320316 131.256274 71.802855 0.0256 0.01536c6.978558 4.981758 7.710717 5.503998 5.667838 10.214396L511.385779 435.292366 294.779135 324.301045l-0.54272-2.954239-0.19456-0.34304c1.14688-3.092479 6.399998-6.328318 8.581117-7.039997L467.148995 227.062039z m76.021733 374.681469c-0.04096-44.175345 0.04096-93.465567 0.58368-116.874199l243.174315-127.969236 0.59904 0.21504c5.048318 1.832959 4.848638 4.607998 4.551678 8.796157l-0.00512 0.04608c-0.10752 1.3056-0.21504 2.867199-0.21504 4.735999v108.682202l-248.688553 122.367957z m-63.088618-0.36864L232.591637 479.595711l-0.03584-109.731802c-0.21504-2.109439-0.65024-6.522878 0.98304-10.946556l1.607679-1.10592h0.59904l1.387519 0.3584L480.24595 483.891389l-0.542719 0.768 1.279999 0.6656-0.90624 116.049879z m-0.476159 61.204458l-0.96256 123.222997c-8.115197-2.943999-10.050556-4.290558-12.472316-5.995518l-2.969599-1.945599-201.410489-112.010201c-16.506874-10.096636-29.14815-19.660793-29.14815-42.936305l-0.0256-81.868771 246.988714 121.533397z m63.677417 0.55296l248.575913-122.316757v82.585571c0 22.937592-9.154557 32.624629-27.24351 43.468785l-205.250488 111.943641-3.159039 2.068479c-1.909759 1.32096-3.430399 2.401279-12.697596 4.592638 0-30.955509-0.1024-76.252133-0.22528-122.342357z" fill="#FFFFFF" p-id="1437"></path></svg>
