<svg t="1762237001058" class="icon" viewBox="0 0 1024 1024" version="1.1" xmlns="http://www.w3.org/2000/svg" p-id="15670" width="200" height="200"><path d="M512 411.648c-4.096-2.048-6.144-6.144-6.144-10.24v-55.296l-59.392 34.816v186.368c290.816-167.936-77.824 45.056 178.176-102.4v-186.368L573.44 309.248v67.584c0 4.096-2.048 8.192-6.144 10.24l-45.056 26.624c-4.096 0-8.192 0-10.24-2.048zM737.28 188.416l-215.04-122.88c-2.048 2.048-24.576 14.336-22.528 14.336L714.752 204.8l22.528-16.384zM690.176 215.04L477.184 90.112 419.84 122.88 634.88 247.808zM524.288 583.68l34.816-20.48v-34.816l-34.816 20.48zM714.752 438.272v36.864l36.864-22.528v-34.816zM813.056 145.408L598.016 20.48l-55.296 30.72L757.76 176.128z" p-id="15671"></path><path d="M772.096 458.752c0 4.096-2.048 8.192-6.144 10.24l-57.344 32.768c-2.048 0-4.096 2.048-6.144 2.048-6.144 0-10.24-4.096-10.24-10.24V450.56l-47.104 26.624v186.368l178.176-102.4v-186.368l-51.2 30.72v53.248z" p-id="15672"></path><path d="M624.64 677.888V491.52l-43.008 24.576v53.248c0 4.096-2.048 8.192-6.144 10.24l-57.344 32.768c-2.048 2.048-4.096 2.048-6.144 2.048-6.144 0-10.24-4.096-10.24-10.24v-40.96L446.464 593.92v186.368c243.712-141.312 159.744-92.16 178.176-102.4zM747.52 208.896l-24.576 12.288v49.152l24.576-14.336z" p-id="15673"></path><path d="M768 262.144c0 4.096-2.048 8.192-6.144 10.24L716.8 299.008c-2.048 0-4.096 2.048-6.144 2.048-6.144 0-10.24-4.096-10.24-10.24v-55.296L645.12 266.24v186.368c20.48-12.288 180.224-104.448 178.176-102.4V163.84l-55.296 30.72v67.584zM550.912 321.536l-24.576 12.288 2.048 49.152 22.528-14.336zM694.272 862.208v-65.536l-57.344 32.768zM77.824 659.456v133.12c20.48 12.288-38.912-22.528 362.496 208.896v-133.12c-10.24-4.096 38.912 22.528-362.496-208.896z" p-id="15674"></path><path d="M935.936 569.344l-90.112-51.2v51.2c0 4.096-2.048 8.192-6.144 10.24-2.048 2.048-282.624 163.84-399.36 231.424-4.096 2.048-8.192 2.048-10.24 0-20.48-12.288 69.632 38.912-235.52-137.216-4.096-2.048-6.144-6.144-6.144-10.24v-77.824l-100.352 57.344L450.56 849.92c49.152-28.672-180.224 104.448 485.376-280.576zM946.176 708.608v-59.392l-51.2 30.72zM946.176 587.776c-49.152 28.672 178.176-104.448-485.376 282.624v36.864l405.504-235.52 79.872-45.056v-38.912zM540.672 303.104L325.632 178.176c-2.048 2.048-24.576 14.336-22.528 14.336l215.04 124.928 22.528-14.336zM495.616 327.68L280.576 202.752l-61.44 34.816 215.04 124.928zM612.352 260.096L397.312 135.168l-51.2 30.72 215.04 122.88z" p-id="15675"></path><path d="M210.944 655.36l215.04 124.928V593.92l-215.04-124.928V655.36zM423.936 569.344v-186.368c-51.2-28.672-163.84-96.256-215.04-124.928v186.368c294.912 169.984 194.56 110.592 215.04 124.928z" p-id="15676"></path></svg>
