<svg t="1754530524657" class="icon" viewBox="0 0 1132 1024" version="1.1" xmlns="http://www.w3.org/2000/svg" p-id="15895" width="200" height="200"><path d="M554.922837 1021.068363L17.509938 783.518625a27.847319 27.847319 0 1 1 22.520006-50.932343L566.142481 964.48584l526.112537-231.899558a27.847319 27.847319 0 1 1 22.68144 50.932343L577.523559 1021.068363a17.031259 17.031259 0 0 1-11.381078 2.825091 16.627675 16.627675 0 0 1-11.219644-2.825091zM566.142481 857.05169a16.627675 16.627675 0 0 1-11.219644-2.82509L17.509938 616.676861a28.008753 28.008753 0 0 1-14.206168-36.726174 26.959433 26.959433 0 0 1 36.726174-11.381078L566.142481 797.644076l526.112537-229.074467a27.847319 27.847319 0 1 1 22.68144 50.932343l-537.412899 237.549738z m-11.219644-169.50542L17.509938 449.996532a27.847319 27.847319 0 1 1 22.520006-50.932343L566.142481 630.963747l526.112537-231.899558a27.847319 27.847319 0 1 1 22.68144 50.932343L577.523559 687.54627A17.031259 17.031259 0 0 1 566.142481 690.371361a16.627675 16.627675 0 0 1-11.219644-2.986524z m-53.757434-220.599196L48.585932 271.77369a34.546819 34.546819 0 0 1-19.694916-31.075994 36.645457 36.645457 0 0 1 22.520006-33.9818L515.210138 11.542512a129.712005 129.712005 0 0 1 107.514867 0l452.579471 195.173384a33.981801 33.981801 0 0 1 25.345096 33.9818 32.286747 32.286747 0 0 1-16.869825 31.075994l-2.82509 2.82509L622.644288 466.947074a129.550571 129.550571 0 0 1-121.559602 0z" fill="#ffffff" p-id="15896"></path></svg>
