<svg t="1762237051341" class="icon" viewBox="0 0 1024 1024" version="1.1" xmlns="http://www.w3.org/2000/svg" p-id="19219" width="200" height="200"><path d="M541.2352 483.6864v407.3984l124.4672-60.672q11.7248-5.7344 24.0128-1.3824 12.288 4.3008 17.92 16.0768 5.632 11.776 1.3824 24.064-4.3008 12.3392-15.9744 18.0224l-168.96 82.432q-6.5024 3.1744-13.6704 3.1744-12.288 0-20.1728-6.8608l-422.4-226.9696Q51.2 730.0096 51.2 711.1168V266.24q0-2.2016 0.256-4.3008Q51.2 259.072 51.2 256q0.6656-20.48 19.5584-28.2112l426.2912-174.1312q11.776-4.8128 23.5008 0l432.5888 175.0016q19.0464 7.68 19.6608 28.3136 0.0512 2.6112-0.1536 5.0176v143.36q0 13.056-9.216 22.3232-9.1648 9.216-22.1696 9.216t-22.1696-9.216q-9.1648-9.216-9.1648-22.272V307.8144l-368.64 175.872zM508.928 116.8896l354.3552 143.36-353.28 168.5504-350.0032-169.4208L508.928 116.8896zM113.92 307.1488l364.6464 176.4864v404.48l-364.6464-195.9424V307.2z m259.072 283.136q18.6368 0 27.5456-16.4864 6.144-11.4688 2.56-24.0128-3.7376-12.4928-15.1552-18.7392l-160.8704-88.064q-11.4176-6.2976-23.9104-2.56-12.4416 3.7376-18.6368 15.2064-6.144 11.4688-2.5088 24.0128 3.6864 12.4928 15.104 18.7392l160.8704 88.064q7.0144 3.84 14.9504 3.84z m560.128 42.8032q22.2208 0 29.5424-21.0944 7.3728-21.0432-9.9328-35.0208l-157.2864-127.3344q-10.0864-8.192-23.04-6.8096-12.9024 1.4336-21.0432 11.6736-8.1408 10.1888-6.7072 23.1424 1.3824 13.0048 11.52 21.1456l87.9104 71.168H612.352q-13.0048 0-22.2208 9.2672-9.1648 9.216-9.1648 22.3232 0 13.056 9.216 22.272 9.1648 9.2672 22.1696 9.2672h320.768z m-162.5088 207.7184q15.1552 0 24.576-11.9296 8.0384-10.24 6.656-23.1936-1.536-12.9536-11.6224-21.0944l-88.4224-71.168h231.3216q13.0048 0 22.1696-9.216t9.1648-22.3232q0-13.056-9.1648-22.272-9.216-9.2672-22.1696-9.2672H612.352q-22.272 0-29.6448 21.1456-7.3216 21.0944 10.0352 35.072l158.3104 127.2832q8.6016 6.9632 19.5584 6.9632z" p-id="19220"></path></svg>
