<svg t="1776080987679" class="icon" viewBox="0 0 1024 1024" version="1.1" xmlns="http://www.w3.org/2000/svg" p-id="1601" width="200" height="200"><path d="M0 128a128 128 0 0 1 128-128h768a128 128 0 0 1 128 128v768a128 128 0 0 1-128 128H128a128 128 0 0 1-128-128V128z" fill="#FF0D00" p-id="1602"></path><path d="M469.333333 448a21.333333 21.333333 0 0 1 42.666667 0V583.111111h-42.666667v-135.111111z" fill="#FF0D00" p-id="1603"></path><path d="M592.668444 652.842667a21.333333 21.333333 0 0 1-31.203555 29.098666L469.333333 583.125333l31.203556-29.098666 92.16 98.816z" fill="#FF0D00" p-id="1604"></path><path d="M590.065778 457.628444a10.752 10.752 0 0 0-11.377778-10.097777h-135.594667a10.112 10.112 0 1 0 0 20.209777h135.594667a10.410667 10.410667 0 0 0 11.377778-10.097777z m-23.068445 63.217778a10.752 10.752 0 0 0-11.064889-10.112h-112.839111a10.424889 10.424889 0 1 0 0 20.536889h112.512a11.050667 11.050667 0 0 0 11.377778-12.003555v1.564444z m-123.904 51.512889a10.424889 10.424889 0 1 0 0 20.536889H512a10.410667 10.410667 0 0 0 11.264-14.677333 10.439111 10.439111 0 0 0-11.264-5.859556h-68.906667z" fill="#FFFFFF" p-id="1605"></path><path d="M555.932444 643.157333h-136.220444a11.064889 11.064889 0 0 1-11.377778-10.424889V426.666667a10.752 10.752 0 0 1 11.377778-10.112H601.457778a10.752 10.752 0 0 1 11.377778 10.112v82.488889a11.377778 11.377778 0 0 0 22.442666 0v-91.975112a21.816889 21.816889 0 0 0-22.755555-20.536888H408.32a21.802667 21.802667 0 0 0-22.755556 20.536888V644.124444a21.802667 21.802667 0 0 0 22.442667 20.536889h147.598222a10.723556 10.723556 0 0 0 10.339556-14.634666 10.752 10.752 0 0 0-10.026667-6.855111zM227.555556 314.780444A86.599111 86.599111 0 0 1 314.168889 227.555556h86.286222v42.666666h-84.394667a43.605333 43.605333 0 0 0-44.231111 44.558222v86.912H227.555556v-86.897777zM402.346667 796.444444h-86.286223a86.613333 86.613333 0 0 1-86.584888-87.224888v-86.912h44.231111v86.897777A43.605333 43.605333 0 0 0 317.966222 753.777778h86.272a307.185778 307.185778 0 0 0-1.891555 42.666666z m392.220444-87.224888A86.613333 86.613333 0 0 1 707.939556 796.444444h-86.272v-44.558222h86.286222a43.633778 43.633778 0 0 0 44.231111-44.572444v-86.897778H796.444444l-1.891555 88.803556z m0-307.527112h-44.245333v-86.897777A43.605333 43.605333 0 0 0 706.062222 270.222222h-86.286222v-42.666666h86.272a86.599111 86.599111 0 0 1 86.613333 87.224888l1.891556 86.912z" fill="#FFFFFF" p-id="1606"></path><path d="M635.875556 618.183111h-37.603556v13.596445h37.603556v-13.596445z m-37.603556 40.775111h37.603556v-13.909333h-37.603556v13.909333z m0-67.953778v13.909334h37.603556v-13.909334h34.133333a10.410667 10.410667 0 0 0 0-15.786666l-42.026667-34.133334a17.066667 17.066667 0 0 0-20.864 0l-42.353778 34.133334a10.424889 10.424889 0 0 0 0 16.739555l33.507556-0.952889z" fill="#FFFFFF" p-id="1607"></path></svg>
