<svg t="1762237146627" class="icon" viewBox="0 0 1024 1024" version="1.1" xmlns="http://www.w3.org/2000/svg" p-id="19372" width="200" height="200"><path d="M512 0a512 512 0 0 1 512 512c0 282.758737-229.241263 512-512 512S0 794.758737 0 512 229.241263 0 512 0z m207.629474 363.627789l-47.427369 49.313685 61.574737 64.053894h-174.645895v-181.625263l61.574737 64.053895 47.427369-49.367579L525.473684 161.684211l-142.686316 148.37221 47.454316 49.367579 61.574737-64.053895v181.625263h-174.618947l61.547789-64.026947-47.427368-49.340632L188.631579 512l142.686316 148.372211 47.427368-49.313685-61.574737-64.053894h174.645895v181.625263l-61.574737-64.053895-47.427368 49.367579L525.473684 862.315789l142.686316-148.37221-47.454316-49.367579-61.574737 64.053895v-181.625263h174.618948l-61.54779 64.026947 47.427369 49.340632L862.315789 512l-142.686315-148.372211z" fill="#000000" p-id="19373"></path></svg>
