<svg t="1762236811587" class="icon" viewBox="0 0 1024 1024" version="1.1" xmlns="http://www.w3.org/2000/svg" p-id="11225" width="200" height="200"><path d="M953 934c0-13.3-10.7-24-24-24H77c-13.3 0-24 10.7-24 24s10.7 24 24 24h852c13.3 0 24-10.7 24-24zM418 122c0-21-17-38-38-38H161c-21 0-38 17-38 38v141c0 21 17 38 38 38h219c21 0 38-17 38-38V122z m462 233c0-21-17-38-38-38H623c-21 0-38 17-38 38v60c0 21 17 38 38 38h219c21 0 38-17 38-38v-60z m-462 15c0-21-17-38-38-38H161c-21 0-38 17-38 38v440c0 21 17 38 38 38h219c21 0 38-17 38-38V370z m462 155c0-21-17-38-38-38H623c-21 0-38 17-38 38v285c0 21 17 38 38 38h219c21 0 38-17 38-38V525z" p-id="11226"></path></svg>
