<svg t="1762842861200" class="icon" viewBox="0 0 1024 1024" version="1.1" xmlns="http://www.w3.org/2000/svg" p-id="7948" width="200" height="200"><path d="M916.224 891.648v77.952a54.208 54.208 0 0 1-54.336 54.272H162.112a54.272 54.272 0 0 1-54.336-54.272V397.312l-25.984 18.24a52.096 52.096 0 0 1-72.32-12.48A51.84 51.84 0 0 1 22.4 330.88L481.344 9.6A52.096 52.096 0 0 1 512 0.192 52.096 52.096 0 0 1 542.72 9.6l458.816 321.28a51.84 51.84 0 0 1 13.056 72.192 52.096 52.096 0 0 1-72.32 12.48l-26.048-18.24v357.12h-187.008v-71.104c0-6.976-4.608-9.408-10.368-5.44l-202.56 138.048c-5.76 3.968-5.76 10.24 0 14.208l202.56 138.112c5.76 3.84 10.368 1.472 10.368-5.504v-71.04h187.008zM254.72 431.232c-6.784 1.088-12.288 6.528-12.16 12.16v49.152c0 6.4 7.232 12.096 14.976 12.16h118.016c7.68-0.128 14.912-5.76 14.976-12.224v-49.088c0-6.4-7.232-12.16-14.912-12.16H257.536a9.344 9.344 0 0 0-2.816 0z m0 121.28c-6.784 1.088-12.288 6.464-12.16 12.16v49.088c0 6.464 7.232 12.16 14.976 12.16h118.016c7.68-0.128 14.912-5.76 14.976-12.16v-49.088c0-6.4-7.232-12.16-14.912-12.16H257.536a9.344 9.344 0 0 0-2.816 0z m188.672 0c-6.784 1.088-12.288 6.464-12.224 12.16v49.088c0 6.464 7.232 12.16 14.976 12.16h118.016c7.68-0.128 14.912-5.76 15.04-12.16v-49.088c0-6.4-7.296-12.16-14.976-12.16H446.144a9.344 9.344 0 0 0-2.752 0zM254.72 673.792c-6.784 1.088-12.288 6.464-12.16 12.16v49.088c0 6.4 7.232 12.16 14.976 12.16h118.016c7.68-0.128 14.912-5.76 14.976-12.224v-49.088c0-6.4-7.232-12.096-14.912-12.096H257.536a9.344 9.344 0 0 0-2.816 0z m188.672 0c-6.784 1.088-12.288 6.464-12.224 12.16v49.088c0 6.4 7.232 12.16 14.976 12.16h118.016c7.68-0.128 14.912-5.76 15.04-12.224v-49.088c0-6.4-7.296-12.096-14.976-12.096H446.144a9.344 9.344 0 0 0-2.752 0z" fill="#666666" p-id="7949"></path></svg>
