<svg t="1753842542835" class="icon" viewBox="0 0 1024 1024" version="1.1" xmlns="http://www.w3.org/2000/svg" p-id="7885" width="200" height="200"><path d="M601.289094 467.353151l89.419566 0L422.709883 780.019243l95.65764-223.376487-51.03535 0-44.621267 0-89.421612 0L601.289094 244.020666l-95.702666 223.332485 51.03535 0L601.289094 467.353151zM958.70846 244.020666l0 535.9996c0 98.713232-80.000032 178.667216-178.75522 178.667216L243.998665 958.687482c-98.623181 0-178.709171-79.953983-178.709171-178.667216L65.289494 244.020666c0-98.623181 80.08599-178.709171 178.709171-178.709171l535.954575 0C878.708428 65.311495 958.70846 145.397485 958.70846 244.020666zM869.286848 288.643979c0-73.979922-59.932997-133.912919-133.954875-133.912919L288.623002 154.73106c-73.979922 0-133.912919 59.932997-133.912919 133.912919l0 446.709995c0 73.979922 59.932997 134.042879 133.912919 134.042879l446.708971 0c74.021877 0 133.954875-60.062957 133.954875-134.042879L869.286848 288.643979z" p-id="7886" fill="#ffffff"></path></svg>
