<svg t="1754618086177" class="icon" viewBox="0 0 1024 1024" version="1.1" xmlns="http://www.w3.org/2000/svg" p-id="7227" width="200" height="200"><path d="M128.946631 241.208889h760.035556v63.715555h-760.035556z" fill="#BDC2C2" p-id="7228"></path><path d="M204.8 400.497778V45.511111c0-25.031111 20.48-45.511111 45.511111-45.511111h523.377778c25.031111 0 45.511111 20.48 45.511111 45.511111v354.986667" fill="#E9F0F0" p-id="7229"></path><path d="M13.653333 304.924444h996.693334v505.173334H13.653333z" fill="#C7CCCC" p-id="7230"></path><path d="M141.084444 623.502222h741.831112v77.368889H141.084444z" fill="#5C5E5E" p-id="7231"></path><path d="M819.2 623.502222v354.986667c0 25.031111-20.48 45.511111-45.511111 45.511111H250.311111c-25.031111 0-45.511111-20.48-45.511111-45.511111v-354.986667" fill="#E9F0F0" p-id="7232"></path><path d="M886.706631 393.671111m-29.582222 0a29.582222 29.582222 0 1 0 59.164444 0 29.582222 29.582222 0 1 0-59.164444 0Z" fill="#00CCC6" p-id="7233"></path><path d="M292.786631 719.075556h418.702222v45.511111h-418.702222zM297.337742 805.546667h268.515556v45.511111h-268.515556zM297.337742 892.017778h332.231111v45.511111h-332.231111z" fill="#00CCC6" p-id="7234"></path></svg>
