<svg t="1754618205531" class="icon" viewBox="0 0 1024 1024" version="1.1" xmlns="http://www.w3.org/2000/svg" p-id="9489" width="200" height="200"><path d="M169.460622 215.231147h667.11552V306.107733H169.460622z" fill="#BDC2C2" p-id="9490"></path><path d="M169.460622 237.986702h667.11552a22.755556 22.755556 0 0 1-22.755555-22.755555V306.107733a22.755556 22.755556 0 0 1 22.755555-22.755555H169.460622a22.755556 22.755556 0 0 1 22.755556 22.755555V215.231147a22.755556 22.755556 0 0 1-22.755556 22.755555z m0 90.876587h667.11552a22.755556 22.755556 0 0 0 22.755556-22.755556V215.231147a22.755556 22.755556 0 0 0-22.755556-22.755556H169.460622a22.755556 22.755556 0 0 0-22.755555 22.755556V306.107733a22.755556 22.755556 0 0 0 22.755555 22.755556z" fill="#6E6E96" p-id="9491"></path><path d="M236.043378 392.492373V80.905102c0-21.972764 17.976889-39.945102 39.945102-39.945102h459.389156c21.972764 0 39.945102 17.976889 39.945102 39.945102v311.587271" fill="#FFFFFF" p-id="9492"></path><path d="M258.798933 392.492373V80.905102A17.2032 17.2032 0 0 1 275.98848 63.715556h459.389156a17.2032 17.2032 0 0 1 17.189546 17.189546v311.587271h45.511111V80.905102C798.078293 46.330311 769.947876 18.204444 735.377636 18.204444H275.98848c-34.574791 0-62.700658 28.130418-62.700658 62.700658v311.587271h45.511111z" fill="#6E6E96" p-id="9493"></path><path d="M68.266667 354.112853c0-25.031111 20.48-45.511111 45.511111-45.511111h783.815111c25.031111 0 45.511111 20.48 45.511111 45.511111v352.392534c0 25.031111-20.48 45.511111-45.511111 45.511111H113.777778c-25.031111 0-45.511111-20.48-45.511111-45.511111v-352.392534z" fill="#EBEBFA" p-id="9494"></path><path d="M887.97184 311.637333H124.7232c-24.375751 0-44.31872 19.942969-44.31872 44.31872v53.179734c0-24.3712 19.942969-44.31872 44.31872-44.31872h763.257742c24.366649 0 44.309618 19.942969 44.309618 44.31872V355.956053c0.004551-24.375751-19.938418-44.31872-44.31872-44.31872z" fill="#FFFFFF" opacity=".64" p-id="9495"></path><path d="M876.457529 690.967893h-750.933333c-23.984356 0-43.604196-19.61984-43.604196-43.599644v61.048604c0 23.979804 19.61984 43.599644 43.604196 43.599645h750.933333c23.988907 0 43.604196-19.624391 43.604195-43.599645v-61.048604c0 23.984356-19.615289 43.599644-43.604195 43.599644z" fill="#6E6E96" opacity=".15" p-id="9496"></path><path d="M91.022222 354.112853c0-12.547413 10.208142-22.755556 22.755556-22.755555h783.815111c12.551964 0 22.755556 10.208142 22.755555 22.755555v352.392534c0 12.547413-10.203591 22.755556-22.755555 22.755555H113.777778c-12.547413 0-22.755556-10.208142-22.755556-22.755555v-352.392534z m-45.511111 352.392534c0 37.64224 30.624427 68.266667 68.266667 68.266666h783.815111c37.64224 0 68.266667-30.624427 68.266667-68.266666v-352.392534c0-37.64224-30.624427-68.266667-68.266667-68.266666H113.777778c-37.64224 0-68.266667 30.624427-68.266667 68.266666v352.392534z" fill="#6E6E96" p-id="9497"></path><path d="M162.32448 588.231111h687.131307v159.78496H162.32448z" fill="#A7A7C2" p-id="9498"></path><path d="M162.32448 610.986667h687.131307a22.755556 22.755556 0 0 1-22.755556-22.755556v159.78496a22.755556 22.755556 0 0 1 22.755556-22.755555H162.32448a22.755556 22.755556 0 0 1 22.755556 22.755555V588.231111a22.755556 22.755556 0 0 1-22.755556 22.755556z m0 159.78496h687.131307c12.57472 0 22.755556-10.185387 22.755555-22.755556V588.231111c0-12.570169-10.180836-22.755556-22.755555-22.755555H162.32448a22.755556 22.755556 0 0 0-22.755556 22.755555v159.78496a22.755556 22.755556 0 0 0 22.755556 22.755556z" fill="#6E6E96" p-id="9499"></path><path d="M775.322738 648.15104v311.587271c0 21.972764-17.972338 39.945102-39.945102 39.945102H275.98848c-21.968213 0-39.945102-17.972338-39.945102-39.945102v-311.587271" fill="#FFFFFF" p-id="9500"></path><path d="M752.567182 648.15104v311.587271c0 4.551111-1.80224 8.851911-5.065386 12.12416a17.066667 17.066667 0 0 1-12.12416 5.065387H275.98848c-4.551111 0-8.851911-1.80224-12.12416-5.069938a17.057564 17.057564 0 0 1-5.069938-12.119609v-311.587271h-45.511111v311.587271c0 16.707129 6.535396 32.44032 18.400142 44.305067a62.30016 62.30016 0 0 0 44.300516 18.395591h459.389155c16.707129 0 32.44032-6.539947 44.295965-18.400142a62.250098 62.250098 0 0 0 18.400142-44.300516v-311.587271h-45.502009z" fill="#6E6E96" p-id="9501"></path><path d="M814.102756 425.183004m-40.573156 0a40.573156 40.573156 0 1 0 81.146311 0 40.573156 40.573156 0 1 0-81.146311 0Z" fill="#00CCC6" p-id="9502"></path><path d="M814.102756 407.369956c4.755911 0 9.229653 1.852302 12.602026 5.215573a17.685618 17.685618 0 0 1 5.215574 12.597475 17.835804 17.835804 0 0 1-17.813049 17.8176 17.840356 17.840356 0 0 1-17.8176-17.8176c0-4.760462 1.852302-9.234204 5.215573-12.597475a17.690169 17.690169 0 0 1 12.597476-5.215573z m-63.328712 17.813048c0 34.916124 28.408036 63.328711 63.328712 63.328712 34.916124 0 63.32416-28.408036 63.32416-63.328712 0-16.91648-6.580907-32.818062-18.545778-44.778382-11.96032-11.96032-27.857351-18.550329-44.778382-18.550329s-32.822613 6.585458-44.782934 18.550329a62.91456 62.91456 0 0 0-18.545778 44.778382z" fill="#6E6E96" p-id="9503"></path><path d="M313.271182 720.15872h367.511325v45.511111H313.271182zM317.267058 805.155271h235.68384v45.511111H317.267058zM317.267058 885.609813h291.612444v45.511111H317.267058z" fill="#00CCC6" p-id="9504"></path><path d="M185.080036 610.986667h641.620195v79.981226H185.080036z" fill="#6E6E96" opacity=".15" p-id="9505"></path><path d="M192.216178 237.986702H814.648889v45.702258H192.216178z" fill="#6E6E96" opacity=".15" p-id="9506"></path></svg>
