<svg t="1754619565877" class="icon" viewBox="0 0 1024 1024" version="1.1" xmlns="http://www.w3.org/2000/svg" p-id="17877" width="200" height="200"><path d="M910.24 883.52H267.68c-62.72 0-113.76-51.04-113.76-113.76v-656C153.92 51.04 204.96 0 267.68 0h642.56C972.96 0 1024 51.04 1024 113.76v656c0 62.72-51.04 113.76-113.76 113.76zM267.68 66.88c-25.76 0-46.88 20.96-46.88 46.88v656c0 25.76 20.96 46.88 46.88 46.88h642.56c25.76 0 46.88-20.96 46.88-46.88v-656c0-25.76-20.96-46.88-46.88-46.88H267.68z" p-id="17878"></path><path d="M843.36 1024H113.76C51.04 1024 0 972.96 0 910.24v-729.6C0 162.24 15.04 147.2 33.44 147.2s33.44 15.04 33.44 33.44v729.6c0 25.76 20.96 46.88 46.88 46.88h729.6a33.44 33.44 0 1 1 0 66.88z" p-id="17879"></path><path d="M387.84 232m-48.64 0a48.64 48.64 0 1 0 97.28 0 48.64 48.64 0 1 0-97.28 0Z" p-id="17880"></path><path d="M348 722.88a33.44 33.44 0 1 1-0.48-66.88c127.52-1.92 142.4-68.8 164.8-170.08 27.36-123.84 61.6-277.76 334.4-306.72 18.24-1.92 34.88 11.36 36.8 29.76a33.44 33.44 0 0 1-29.76 36.8C628.8 269.44 604 381.6 577.6 500.32c-22.88 103.04-48.8 219.84-229.12 222.56h-0.48z" p-id="17881"></path></svg>
