<svg t="1762840990024" class="icon" viewBox="0 0 1024 1024" version="1.1" xmlns="http://www.w3.org/2000/svg" p-id="6442" width="200" height="200"><path d="M469.6 352.8l35.8-62.1v62.1zM463.5 352.8l41.9-72.7v10.6l-35.8 62.1z" fill="#F76A48" p-id="6443"></path><path d="M457.3 352.8l48.1-83.4v10.7l-41.9 72.7z" fill="#F76B49" p-id="6444"></path><path d="M451.2 352.8l54.2-94v10.6l-48.1 83.4z" fill="#F66B4A" p-id="6445"></path><path d="M445.1 352.8l60.3-104.6v10.6l-54.2 94z" fill="#F66C4B" p-id="6446"></path><path d="M438.9 352.8l66.5-115.2v10.6l-60.3 104.6z" fill="#F66D4C" p-id="6447"></path><path d="M432.8 352.8l72.6-125.9v10.7l-66.5 115.2z" fill="#F66E4D" p-id="6448"></path><path d="M426.7 352.8l78.7-136.5v10.6l-72.6 125.9z" fill="#F56E4E" p-id="6449"></path><path d="M420.5 352.8l84.9-147.1v10.6l-78.7 136.5z" fill="#F56F4F" p-id="6450"></path><path d="M414.4 352.8l91-157.7v10.6l-84.9 147.1z" fill="#F57050" p-id="6451"></path><path d="M408.3 352.8l93.6-162.2 3.5 2.1v2.4l-91 157.7z" fill="#F47151" p-id="6452"></path><path d="M402.1 352.8L497.3 188l4.6 2.6-93.6 162.2z" fill="#F47152" p-id="6453"></path><path d="M396 352.8l96.7-167.5 4.6 2.7-95.2 164.8z" fill="#F47253" p-id="6454"></path><path d="M389.9 352.8l98.2-170.2 4.6 2.7L396 352.8z" fill="#F37354" p-id="6455"></path><path d="M383.7 352.8L483.5 180l4.6 2.6-98.2 170.2z" fill="#F37455" p-id="6456"></path><path d="M377.6 352.8l101.3-175.5 4.6 2.7-99.8 172.8z" fill="#F37456" p-id="6457"></path><path d="M371.4 352.8l102.9-178.1 4.6 2.6-101.3 175.5z" fill="#F37557" p-id="6458"></path><path d="M365.3 352.8L469.7 172l4.6 2.7-102.9 178.1z" fill="#F27658" p-id="6459"></path><path d="M359.2 352.8l105.9-183.4 4.6 2.6-104.4 180.8z" fill="#F27659" p-id="6460"></path><path d="M353 352.8l107.5-186.1 4.6 2.7-105.9 183.4z" fill="#F2775A" p-id="6461"></path><path d="M346.9 352.8l109-188.7 4.6 2.6L353 352.8z" fill="#F1785B" p-id="6462"></path><path d="M340.8 352.8l110.5-191.4 4.6 2.7-109 188.7z" fill="#F1795C" p-id="6463"></path><path d="M334.6 352.8l112.1-194.1 4.6 2.7-110.5 191.4z" fill="#F1795D" p-id="6464"></path><path d="M328.5 352.8l113.6-196.7 4.6 2.6-112.1 194.1z" fill="#F07A5E" p-id="6465"></path><path d="M322.4 352.8L436 156h5.9l0.2 0.1-113.6 196.7z" fill="#F07B5F" p-id="6466"></path><path d="M316.2 352.8L429.8 156h6.2L322.4 352.8z" fill="#F07C60" p-id="6467"></path><path d="M310.1 352.8L423.7 156h6.1L316.2 352.8z" fill="#F07C61" p-id="6468"></path><path d="M304 352.8L417.6 156h6.1L310.1 352.8z" fill="#EF7D62" p-id="6469"></path><path d="M297.8 352.8L411.4 156h6.2L304 352.8z" fill="#EF7E63" p-id="6470"></path><path d="M291.7 352.8L405.3 156h6.1L297.8 352.8z" fill="#EF7F64" p-id="6471"></path><path d="M285.6 352.8L399.2 156h6.1L291.7 352.8z" fill="#EE7F65" p-id="6472"></path><path d="M279.4 352.8L393 156h6.2L285.6 352.8z" fill="#EE8067" p-id="6473"></path><path d="M273.3 352.8L386.9 156h6.1L279.4 352.8z" fill="#EE8168" p-id="6474"></path><path d="M271.3 352.8l-3.1-1.8 112.6-195h6.1L273.3 352.8z" fill="#ED8169" p-id="6475"></path><path d="M268.2 351l-4.6-2.7 111-192.3h6.2z" fill="#ED826A" p-id="6476"></path><path d="M263.6 348.3l-4.6-2.7L368.5 156h6.1z" fill="#ED836B" p-id="6477"></path><path d="M259 345.6l-4.6-2.6 108-187h6.1z" fill="#ED846C" p-id="6478"></path><path d="M254.4 343l-4.6-2.7L356.2 156h6.2z" fill="#EC846D" p-id="6479"></path><path d="M249.8 340.3l-4.6-2.6L350.1 156h6.1z" fill="#EC856E" p-id="6480"></path><path d="M245.2 337.7l-4.6-2.7L344 156h6.1z" fill="#EC866F" p-id="6481"></path><path d="M240.6 335l-4.6-2.6L337.8 156h6.2z" fill="#EB8770" p-id="6482"></path><path d="M236 332.4l-4.6-2.7L331.7 156h6.1z" fill="#EB8771" p-id="6483"></path><path d="M231.4 329.7l-4.6-2.6L325.6 156h6.1z" fill="#EB8872" p-id="6484"></path><path d="M226.8 327.1l-4.6-2.7L319.4 156h6.2z" fill="#EA8973" p-id="6485"></path><path d="M222.2 324.4l-4.6-2.7L313.3 156h6.1z" fill="#EA8A74" p-id="6486"></path><path d="M217.6 321.7l-4.6-2.6L307.2 156h6.1z" fill="#EA8A75" p-id="6487"></path><path d="M213 319.1l-4.6-2.7L301 156h6.2z" fill="#EA8B76" p-id="6488"></path><path d="M208.4 316.4l-3.6-2V312l90.1-156h6.1z" fill="#E98C77" p-id="6489"></path><path d="M204.8 301.4l84-145.4h6.1l-90.1 156z" fill="#E98C78" p-id="6490"></path><path d="M204.8 290.8L282.6 156h6.2l-84 145.4z" fill="#E98D79" p-id="6491"></path><path d="M204.8 280.2L276.5 156h6.1l-77.8 134.8z" fill="#E88E7A" p-id="6492"></path><path d="M204.8 269.5L270.4 156h6.1l-71.7 124.2z" fill="#E88F7B" p-id="6493"></path><path d="M204.8 258.9L264.2 156h6.2l-65.6 113.5z" fill="#E88F7C" p-id="6494"></path><path d="M204.8 248.3l53.3-92.3h6.1l-59.4 102.9z" fill="#E7907D" p-id="6495"></path><path d="M204.8 237.7L252 156h6.1l-53.3 92.3z" fill="#E7917E" p-id="6496"></path><path d="M204.8 227l41-71h6.2l-47.2 81.7z" fill="#E7927F" p-id="6497"></path><path d="M204.8 216.4l34.9-60.4h6.1l-41 71z" fill="#E79280" p-id="6498"></path><path d="M204.8 205.8l28.8-49.8h6.1l-34.9 60.4z" fill="#E69381" p-id="6499"></path><path d="M204.8 195.2l22.6-39.2h6.2l-28.8 49.8z" fill="#E69482" p-id="6500"></path><path d="M204.8 184.5l16.5-28.5h6.1l-22.6 39.2z" fill="#E69583" p-id="6501"></path><path d="M204.8 173.9l10.4-17.9h6.1l-16.5 28.5z" fill="#E59584" p-id="6502"></path><path d="M204.8 163.3l4.2-7.3h6.2l-10.4 17.9z" fill="#E59685" p-id="6503"></path><path d="M209 156l-4.2 7.3V156z" fill="#E59685" p-id="6504"></path><path d="M321.3 420l10.5-18.2V420zM320.4 420l11.4-19.9v1.7L321.3 420z" fill="#F76A48" p-id="6505"></path><path d="M319.4 420l12.4-21.5v1.6L320.4 420z" fill="#F76B49" p-id="6506"></path><path d="M318.5 420l13.3-23.1v1.6L319.4 420z" fill="#F66B4A" p-id="6507"></path><path d="M317.5 420l14.3-24.8v1.7L318.5 420z" fill="#F66C4B" p-id="6508"></path><path d="M316.6 420l15.2-26.4v1.6L317.5 420z" fill="#F66D4C" p-id="6509"></path><path d="M315.7 420l16.1-28v1.6L316.6 420z" fill="#F66E4D" p-id="6510"></path><path d="M314.7 420l17.1-29.7v1.7l-16.1 28z" fill="#F56E4E" p-id="6511"></path><path d="M313.8 420l18-31.3v1.6L314.7 420z" fill="#F56F4F" p-id="6512"></path><path d="M312.8 420l19-32.9v1.6l-18 31.3z" fill="#F57050" p-id="6513"></path><path d="M311.9 420l19.9-34.6v1.7l-19 32.9z" fill="#F47151" p-id="6514"></path><path d="M310.9 420l20.9-36.2v1.6L311.9 420z" fill="#F47152" p-id="6515"></path><path d="M310 420l21.8-37.8v1.6L310.9 420z" fill="#F47253" p-id="6516"></path><path d="M309.1 420l22.7-39.5v1.7L310 420z" fill="#F37354" p-id="6517"></path><path d="M308.1 420l23.7-41.1v1.6L309.1 420z" fill="#F37455" p-id="6518"></path><path d="M307.2 420l24.6-42.7v1.6L308.1 420z" fill="#F37456" p-id="6519"></path><path d="M306.2 420l25.6-44.4v1.7L307.2 420z" fill="#F37557" p-id="6520"></path><path d="M305.3 420l26.5-46v1.6L306.2 420z" fill="#F27658" p-id="6521"></path><path d="M304.3 420l27.5-47.6v1.6l-26.5 46z" fill="#F27659" p-id="6522"></path><path d="M303.4 420l28.4-49.3v1.7L304.3 420z" fill="#F2775A" p-id="6523"></path><path d="M302.5 420l28.7-49.8h0.6v0.5L303.4 420z" fill="#F1785B" p-id="6524"></path><path d="M301.5 420l28.8-49.8h0.9L302.5 420z" fill="#F1795C" p-id="6525"></path><path d="M300.6 420l28.7-49.8h1L301.5 420z" fill="#F1795D" p-id="6526"></path><path d="M299.6 420l28.8-49.8h0.9L300.6 420z" fill="#F07A5E" p-id="6527"></path><path d="M298.7 420l28.7-49.8h1L299.6 420z" fill="#F07B5F" p-id="6528"></path><path d="M297.7 420l28.8-49.8h0.9L298.7 420z" fill="#F07C60" p-id="6529"></path><path d="M296.8 420l28.8-49.8h0.9L297.7 420z" fill="#F07C61" p-id="6530"></path><path d="M295.9 420l28.7-49.8h1L296.8 420z" fill="#EF7D62" p-id="6531"></path><path d="M294.9 420l28.8-49.8h0.9L295.9 420z" fill="#EF7E63" p-id="6532"></path><path d="M294 420l28.7-49.8h1L294.9 420z" fill="#EF7F64" p-id="6533"></path><path d="M293 420l28.8-49.8h0.9L294 420z" fill="#EE7F65" p-id="6534"></path><path d="M292.1 420l28.7-49.8h1L293 420z" fill="#EE8067" p-id="6535"></path><path d="M291.1 420l28.8-49.8h0.9L292.1 420z" fill="#EE8168" p-id="6536"></path><path d="M290.2 420l28.8-49.8h0.9L291.1 420z" fill="#ED8169" p-id="6537"></path><path d="M289.3 420l28.7-49.8h1L290.2 420z" fill="#ED826A" p-id="6538"></path><path d="M288.3 420l28.8-49.8h0.9L289.3 420z" fill="#ED836B" p-id="6539"></path><path d="M287.4 420l28.7-49.8h1L288.3 420z" fill="#ED846C" p-id="6540"></path><path d="M286.4 420l28.8-49.8h0.9L287.4 420z" fill="#EC846D" p-id="6541"></path><path d="M285.5 420l28.7-49.8h1L286.4 420z" fill="#EC856E" p-id="6542"></path><path d="M284.5 420l28.8-49.8h0.9L285.5 420z" fill="#EC866F" p-id="6543"></path><path d="M283.6 420l28.8-49.8h0.9L284.5 420z" fill="#EB8770" p-id="6544"></path><path d="M282.6 420l28.8-49.8h1L283.6 420z" fill="#EB8771" p-id="6545"></path><path d="M282 419.4l28.5-49.2h0.9L282.6 420h-0.6z" fill="#EB8872" p-id="6546"></path><path d="M282 417.8l27.5-47.6h1L282 419.4z" fill="#EA8973" p-id="6547"></path><path d="M282 416.2l26.6-46h0.9L282 417.8z" fill="#EA8A74" p-id="6548"></path><path d="M282 414.5l25.6-44.3h1l-26.6 46z" fill="#EA8A75" p-id="6549"></path><path d="M282 412.9l24.7-42.7h0.9L282 414.5z" fill="#EA8B76" p-id="6550"></path><path d="M282 411.3l23.7-41.1h1L282 412.9z" fill="#E98C77" p-id="6551"></path><path d="M282 409.6l22.8-39.4h0.9L282 411.3z" fill="#E98C78" p-id="6552"></path><path d="M282 408l21.9-37.8h0.9L282 409.6z" fill="#E98D79" p-id="6553"></path><path d="M282 406.4l20.9-36.2h1L282 408z" fill="#E88E7A" p-id="6554"></path><path d="M282 404.7l20-34.5h0.9L282 406.4z" fill="#E88F7B" p-id="6555"></path><path d="M282 403.1l19-32.9h1l-20 34.5z" fill="#E88F7C" p-id="6556"></path><path d="M282 401.5l18.1-31.3h0.9l-19 32.9z" fill="#E7907D" p-id="6557"></path><path d="M282 399.8l17.1-29.6h1L282 401.5z" fill="#E7917E" p-id="6558"></path><path d="M282 398.2l16.2-28h0.9L282 399.8z" fill="#E7927F" p-id="6559"></path><path d="M282 396.6l15.3-26.4h0.9l-16.2 28z" fill="#E79280" p-id="6560"></path><path d="M282 394.9l14.3-24.7h1L282 396.6z" fill="#E69381" p-id="6561"></path><path d="M282 393.3l13.4-23.1h0.9L282 394.9z" fill="#E69482" p-id="6562"></path><path d="M282 391.7l12.4-21.5h1L282 393.3z" fill="#E69583" p-id="6563"></path><path d="M282 390l11.5-19.8h0.9L282 391.7z" fill="#E59584" p-id="6564"></path><path d="M282 388.4l10.5-18.2h1L282 390z" fill="#E59685" p-id="6565"></path><path d="M292.5 370.2L282 388.4v-18.2z" fill="#E59685" p-id="6566"></path><path d="M450.8 420l10.5-18.2V420zM449.9 420l11.4-19.9v1.7L450.8 420z" fill="#F76A48" p-id="6567"></path><path d="M448.9 420l12.4-21.5v1.6L449.9 420z" fill="#F76B49" p-id="6568"></path><path d="M448 420l13.3-23.1v1.6L448.9 420z" fill="#F66B4A" p-id="6569"></path><path d="M447.1 420l14.2-24.8v1.7L448 420z" fill="#F66C4B" p-id="6570"></path><path d="M446.1 420l15.2-26.4v1.6L447.1 420z" fill="#F66D4C" p-id="6571"></path><path d="M445.2 420l16.1-28v1.6L446.1 420z" fill="#F66E4D" p-id="6572"></path><path d="M444.2 420l17.1-29.7v1.7l-16.1 28z" fill="#F56E4E" p-id="6573"></path><path d="M443.3 420l18-31.3v1.6L444.2 420z" fill="#F56F4F" p-id="6574"></path><path d="M442.3 420l19-32.9v1.6l-18 31.3z" fill="#F57050" p-id="6575"></path><path d="M441.4 420l19.9-34.6v1.7l-19 32.9z" fill="#F47151" p-id="6576"></path><path d="M440.5 420l20.8-36.2v1.6L441.4 420z" fill="#F47152" p-id="6577"></path><path d="M439.5 420l21.8-37.8v1.6L440.5 420z" fill="#F47253" p-id="6578"></path><path d="M438.6 420l22.7-39.5v1.7L439.5 420z" fill="#F37354" p-id="6579"></path><path d="M437.6 420l23.7-41.1v1.6L438.6 420z" fill="#F37455" p-id="6580"></path><path d="M436.7 420l24.6-42.7v1.6L437.6 420z" fill="#F37456" p-id="6581"></path><path d="M435.7 420l25.6-44.4v1.7L436.7 420z" fill="#F37557" p-id="6582"></path><path d="M434.8 420l26.5-46v1.6L435.7 420z" fill="#F27658" p-id="6583"></path><path d="M433.8 420l27.5-47.6v1.6l-26.5 46z" fill="#F27659" p-id="6584"></path><path d="M432.9 420l28.4-49.3v1.7L433.8 420z" fill="#F2775A" p-id="6585"></path><path d="M432 420l28.7-49.8h0.6v0.5L432.9 420z" fill="#F1785B" p-id="6586"></path><path d="M431 420l28.8-49.8h0.9L432 420z" fill="#F1795C" p-id="6587"></path><path d="M430.1 420l28.7-49.8h1L431 420z" fill="#F1795D" p-id="6588"></path><path d="M429.1 420l28.8-49.8h0.9L430.1 420z" fill="#F07A5E" p-id="6589"></path><path d="M428.2 420l28.7-49.8h1L429.1 420z" fill="#F07B5F" p-id="6590"></path><path d="M427.2 420l28.8-49.8h0.9L428.2 420z" fill="#F07C60" p-id="6591"></path><path d="M426.3 420l28.8-49.8h0.9L427.2 420z" fill="#F07C61" p-id="6592"></path><path d="M425.4 420l28.7-49.8h1L426.3 420z" fill="#EF7D62" p-id="6593"></path><path d="M424.4 420l28.8-49.8h0.9L425.4 420z" fill="#EF7E63" p-id="6594"></path><path d="M423.5 420l28.7-49.8h1L424.4 420z" fill="#EF7F64" p-id="6595"></path><path d="M422.5 420l28.8-49.8h0.9L423.5 420z" fill="#EE7F65" p-id="6596"></path><path d="M421.6 420l28.7-49.8h1L422.5 420z" fill="#EE8067" p-id="6597"></path><path d="M420.6 420l28.8-49.8h0.9L421.6 420z" fill="#EE8168" p-id="6598"></path><path d="M419.7 420l28.8-49.8h0.9L420.6 420z" fill="#ED8169" p-id="6599"></path><path d="M418.8 420l28.7-49.8h1L419.7 420z" fill="#ED826A" p-id="6600"></path><path d="M417.8 420l28.8-49.8h0.9L418.8 420z" fill="#ED836B" p-id="6601"></path><path d="M416.9 420l28.7-49.8h1L417.8 420z" fill="#ED846C" p-id="6602"></path><path d="M415.9 420l28.8-49.8h0.9L416.9 420z" fill="#EC846D" p-id="6603"></path><path d="M415 420l28.7-49.8h1L415.9 420z" fill="#EC856E" p-id="6604"></path><path d="M414 420l28.8-49.8h0.9L415 420z" fill="#EC866F" p-id="6605"></path><path d="M413.1 420l28.8-49.8h0.9L414 420z" fill="#EB8770" p-id="6606"></path><path d="M412.2 420l28.7-49.8h1L413.1 420z" fill="#EB8771" p-id="6607"></path><path d="M411.5 419.4l28.5-49.2h0.9L412.2 420h-0.7z" fill="#EB8872" p-id="6608"></path><path d="M411.5 417.8l27.5-47.6h1l-28.5 49.2z" fill="#EA8973" p-id="6609"></path><path d="M411.5 416.2l26.6-46h0.9l-27.5 47.6z" fill="#EA8A74" p-id="6610"></path><path d="M411.5 414.5l25.6-44.3h1l-26.6 46z" fill="#EA8A75" p-id="6611"></path><path d="M411.5 412.9l24.7-42.7h0.9l-25.6 44.3z" fill="#EA8B76" p-id="6612"></path><path d="M411.5 411.3l23.8-41.1h0.9l-24.7 42.7z" fill="#E98C77" p-id="6613"></path><path d="M411.5 409.6l22.8-39.4h1l-23.8 41.1z" fill="#E98C78" p-id="6614"></path><path d="M411.5 408l21.9-37.8h0.9l-22.8 39.4z" fill="#E98D79" p-id="6615"></path><path d="M411.5 406.4l20.9-36.2h1L411.5 408z" fill="#E88E7A" p-id="6616"></path><path d="M411.5 404.7l20-34.5h0.9l-20.9 36.2z" fill="#E88F7B" p-id="6617"></path><path d="M411.5 403.1l19-32.9h1l-20 34.5z" fill="#E88F7C" p-id="6618"></path><path d="M411.5 401.5l18.1-31.3h0.9l-19 32.9z" fill="#E7907D" p-id="6619"></path><path d="M411.5 399.8l17.2-29.6h0.9l-18.1 31.3z" fill="#E7917E" p-id="6620"></path><path d="M411.5 398.2l16.2-28h1l-17.2 29.6z" fill="#E7927F" p-id="6621"></path><path d="M411.5 396.6l15.3-26.4h0.9l-16.2 28z" fill="#E79280" p-id="6622"></path><path d="M411.5 394.9l14.3-24.7h1l-15.3 26.4z" fill="#E69381" p-id="6623"></path><path d="M411.5 393.3l13.4-23.1h0.9l-14.3 24.7z" fill="#E69482" p-id="6624"></path><path d="M411.5 391.7l12.4-21.5h1l-13.4 23.1z" fill="#E69583" p-id="6625"></path><path d="M411.5 390l11.5-19.8h0.9l-12.4 21.5z" fill="#E59584" p-id="6626"></path><path d="M411.5 388.4l10.6-18.2h0.9L411.5 390z" fill="#E59685" p-id="6627"></path><path d="M422.1 370.2l-10.6 18.2v-18.2z" fill="#E59685" p-id="6628"></path><path d="M753.5 540H333.6c-15.5 0-28-12.5-28-28s12.5-28 28-28h419.9c15.5 0 28 12.5 28 28s-12.6 28-28 28z" fill="#009688" p-id="6629"></path><path d="M752 718H332c-15.5 0-28-12.5-28-28s12.5-28 28-28h420c15.5 0 28 12.5 28 28s-12.5 28-28 28z" fill="#009688" p-id="6630"></path><path d="M748 896H332c-15.5 0-28-12.5-28-28s12.5-28 28-28h416c15.5 0 28 12.5 28 28s-12.5 28-28 28z" fill="#009688" p-id="6631"></path><path d="M258.4 540h-7.9c-15.5 0-28-12.5-28-28s12.5-28 28-28h7.9c15.5 0 28 12.5 28 28s-12.5 28-28 28z" fill="#009688" p-id="6632"></path><path d="M258.4 716h-7.9c-15.5 0-28-12.5-28-28s12.5-28 28-28h7.9c15.5 0 28 12.5 28 28s-12.5 28-28 28z" fill="#009688" p-id="6633"></path><path d="M256 896h-8c-15.5 0-28-12.5-28-28s12.5-28 28-28h8c15.5 0 28 12.5 28 28s-12.5 28-28 28z" fill="#009688" p-id="6634"></path><path d="M840 1024H184c-46.3 0-84-37.7-84-84V84c0-46.3 37.7-84 84-84h656c46.3 0 84 37.7 84 84v856c0 46.3-37.7 84-84 84zM184 56c-15.4 0-28 12.6-28 28v856c0 15.4 12.6 28 28 28h656c15.4 0 28-12.6 28-28V84c0-15.4-12.6-28-28-28H184z" fill="#009688" p-id="6635"></path><path d="M756 380H624c-15.5 0-28-12.5-28-28s12.5-28 28-28h132c15.5 0 28 12.5 28 28s-12.5 28-28 28z" fill="#009688" p-id="6636"></path><path d="M756 236H624c-15.5 0-28-12.5-28-28s12.5-28 28-28h132c15.5 0 28 12.5 28 28s-12.5 28-28 28z" fill="#009688" opacity=".4" p-id="6637"></path></svg>
