<svg t="1752303543710" class="icon" viewBox="0 0 1024 1024" version="1.1" xmlns="http://www.w3.org/2000/svg" p-id="22704" width="200" height="200"><path d="M512.928 294.88a313.216 313.216 0 0 0-315.616 310.656 316.16 316.16 0 0 0 632.192-0.32 307.776 307.776 0 0 0-92.8-219.552 319.296 319.296 0 0 0-223.776-90.784z m162.944 282.432l-62.528 59.424 14.944 84.128c5.184 28.544-11.584 40.704-37.696 26.944l-76.8-40-76.96 40c-26.144 13.28-42.88 1.856-37.76-26.944l14.944-84.128-62.4-59.424c-21.056-20.096-14.944-39.296 14.4-43.84l86.208-12.384 38.72-76.8c13.056-25.6 33.6-26.016 47.104 0l38.656 76.8 86.4 12.384c27.232 4.224 34.272 23.424 12.768 43.968zM613.344 115.68a21.856 21.856 0 0 0-21.344 17.184l-60.16 116.608a375.296 375.296 0 0 1 205.568 79.584l89.984-178.368a20.576 20.576 0 0 0 4.64-12.8 23.104 23.104 0 0 0-22.88-21.984l-195.744-0.224z m-181.792 17.184a21.856 21.856 0 0 0-21.44-17.184H214.368a22.56 22.56 0 0 0-16 6.4 21.824 21.824 0 0 0-6.56 15.584 20.48 20.48 0 0 0 4.64 12.8l89.984 178.592a372.96 372.96 0 0 1 205.088-79.68z" p-id="22705" fill="#ffffff"></path></svg>
