<svg t="1754619477629" class="icon" viewBox="0 0 1024 1024" version="1.1" xmlns="http://www.w3.org/2000/svg" p-id="16859" width="200" height="200"><path d="M337.92 614.4a61.44 61.44 0 0 0-61.44 61.44v40.96a61.44 61.44 0 0 0 61.44 63.488A65.536 65.536 0 0 0 404.48 716.8v-40.96A66.048 66.048 0 0 0 337.92 614.4z m189.44-169.984a65.024 65.024 0 0 0-61.44 61.952V716.8a65.024 65.024 0 0 0 61.44 63.488A65.536 65.536 0 0 0 593.92 716.8V506.368a66.048 66.048 0 0 0-66.56-64z m194.56-169.984a65.536 65.536 0 0 0-66.56 63.488V716.8a65.536 65.536 0 0 0 66.56 63.488A61.44 61.44 0 0 0 783.36 716.8V336.384a61.44 61.44 0 0 0-61.44-64zM829.44 102.4H230.4A130.56 130.56 0 0 0 102.4 229.888v594.944a130.56 130.56 0 0 0 128 127.488h599.04a125.952 125.952 0 0 0 122.88-127.488V229.888A125.952 125.952 0 0 0 829.44 102.4z m40.96 722.432a43.008 43.008 0 0 1-40.96 42.496H230.4a43.008 43.008 0 0 1-40.96-42.496V229.888a43.008 43.008 0 0 1 40.96-42.496h599.04a43.008 43.008 0 0 1 40.96 42.496z" p-id="16860"></path></svg>
