<svg t="1754619456102" class="icon" viewBox="0 0 1024 1024" version="1.1" xmlns="http://www.w3.org/2000/svg" p-id="15843" width="200" height="200"><path d="M917.893166 515.459459H505.064337v-412.828828c0-5.073874-4.151351-9.225225-9.225225-9.225226H465.85713a459.490018 459.490018 0 0 0-326.111712 135.029622A459.167135 459.167135 0 0 0 40.915581 375.005405 458.512144 458.512144 0 0 0 4.595869 554.666667a459.490018 459.490018 0 0 0 135.029621 326.111711 459.167135 459.167135 0 0 0 146.570379 98.829838A458.512144 458.512144 0 0 0 465.85713 1015.918703a459.490018 459.490018 0 0 0 326.111712-135.038847A459.167135 459.167135 0 0 0 890.79868 734.327928 458.512144 458.512144 0 0 0 927.118391 554.666667v-29.981982c0-5.073874-4.151351-9.225225-9.225225-9.225226zM735.353635 826.58018A382.37636 382.37636 0 0 1 464.012085 937.513514c-101.58818-0.461261-197.069261-40.240432-268.915315-112.086487C122.79868 753.128937 83.010283 656.955964 83.010283 554.666667c0-102.280072 39.788396-198.46227 112.086487-270.760361 62.962162-62.962162 144.033441-101.35755 231.553153-110.130738v420.098306h420.089081c-8.874667 87.980973-47.620613 169.513514-111.394595 232.706306z" fill="#000000" p-id="15844"></path><path d="M1019.370644 451.344144l-2.998199-32.518919c-9.806414-106.200793-56.965766-206.414414-132.843243-282.061261A460.578595 460.578595 0 0 0 600.776049 4.151351L568.137202 1.153153A9.151423 9.151423 0 0 0 558.109382 10.267676v442.921513c0 5.073874 4.151351 9.225225 9.225226 9.225225L1010.145418 461.261261c5.424432 0 9.686486-4.612613 9.225226-9.917117zM636.293166 384.230631V88.331532a383.123604 383.123604 0 0 1 191.884685 103.553153 380.725045 380.725045 0 0 1 103.783784 191.534126l-295.668469 0.81182z" fill="#000000" p-id="15845"></path></svg>
