<svg t="1754619857258" class="icon" viewBox="0 0 1024 1024" version="1.1" xmlns="http://www.w3.org/2000/svg" p-id="22730" width="200" height="200"><path d="M967.111111 0H56.888889a56.888889 56.888889 0 0 0-56.888889 56.888889v739.555555a56.888889 56.888889 0 0 0 56.888889 56.888889h910.222222a56.888889 56.888889 0 0 0 56.888889-56.888889V56.888889a56.888889 56.888889 0 0 0-56.888889-56.888889zM227.555556 682.666667a56.888889 56.888889 0 0 1-113.777778 0V512a56.888889 56.888889 0 0 1 113.777778 0z m227.555555 0a56.888889 56.888889 0 0 1-113.777778 0V170.666667a56.888889 56.888889 0 0 1 113.777778 0z m227.555556 0a56.888889 56.888889 0 0 1-113.777778 0v-56.888889a56.888889 56.888889 0 0 1 113.777778 0z m227.555555 0a56.888889 56.888889 0 0 1-113.777778 0V341.333333a56.888889 56.888889 0 0 1 113.777778 0zM910.222222 910.222222H113.777778a56.888889 56.888889 0 0 0 0 113.777778h796.444444a56.888889 56.888889 0 0 0 0-113.777778z" p-id="22731"></path></svg>
