<svg t="1752243593478" class="icon" viewBox="0 0 1024 1024" version="1.1" xmlns="http://www.w3.org/2000/svg" p-id="17694" width="200" height="200"><path d="M1024 812.8V32H0v780.8h294.4v51.2h-51.2v51.2H192v51.2h-44.8v51.2h729.6v-51.2H832v-51.2h-51.2v-51.2h-51.2v-51.2H1024zM96 716.8V128h832v582.4l-832 6.4z" fill="#e6e6e6" p-id="17695"></path><path d="M563.2 185.6c-12.8-19.2-25.6-32-44.8-32s-38.4 19.2-44.8 32L224 601.6c-12.8 19.2-19.2 38.4-12.8 57.6 6.4 12.8 19.2 19.2 44.8 19.2h524.8c32 0 44.8-12.8 44.8-25.6 6.4-19.2 0-38.4-12.8-51.2L563.2 185.6z m-38.4 416c-12.8 0-32-19.2-32-32s12.8-32 32-32c12.8 0 32 12.8 32 32s-19.2 32-32 32z m32-134.4c0 12.8-12.8 32-32 32-12.8 0-32-12.8-32-32V326.4c0-12.8 12.8-32 32-32 12.8 0 32 12.8 32 32v140.8z" fill="#e6e6e6" p-id="17696"></path></svg>
