<svg t="1769477411428" class="icon" viewBox="0 0 1024 1024" version="1.1" xmlns="http://www.w3.org/2000/svg" p-id="15082" width="256" height="256"><path d="M765.072 14.272A33.76 33.76 0 0 1 798.832 48v303.696h92.784a33.76 33.76 0 0 1 33.728 33.76v84.352a33.76 33.76 0 1 1-67.488 0v-50.608H81.76V731.36h79.728v-92.8c0-18.624 15.104-33.728 33.76-33.728h246.816a33.744 33.744 0 1 1 0 67.488h-212.64v185.6h212.288a33.744 33.744 0 1 1 0 67.472H195.648a33.76 33.76 0 0 1-33.744-33.76v-92.8H48a33.76 33.76 0 0 1-33.76-33.728V385.472A33.76 33.76 0 0 1 48 351.712h92.8V48.016a33.76 33.76 0 0 1 33.76-33.76h590.512zM208.32 351.712h523.024V81.76h-523.04v269.952z" p-id="15083"></path><path d="M543.44 605.12a21.104 21.104 0 0 1 42.192 0v47.072h47.072a21.104 21.104 0 0 1 0 42.176h-68.16c-11.664 0-21.12-9.44-21.12-21.088v-68.16z" p-id="15084"></path><path d="M535.344 751.04a28.128 28.128 0 0 1 56.256 0c0 88 71.328 159.36 159.344 159.36 88 0 159.344-71.36 159.344-159.36 0-88-71.36-159.344-159.36-159.344a159.264 159.264 0 0 0-138.016 79.68 28.144 28.144 0 0 1-48.688-28.16 215.52 215.52 0 0 1 186.72-107.76c119.056 0 215.568 96.528 215.568 215.584 0 119.072-96.512 215.584-215.568 215.584-119.072 0-215.6-96.512-215.6-215.584z" p-id="15085"></path><path d="M722.88 638.56a28.128 28.128 0 0 1 56.24 0v100.896l71.248 71.248a28.112 28.112 0 0 1-39.776 39.76l-79.488-79.472a28.128 28.128 0 0 1-8.224-19.888V638.56z" p-id="15086"></path></svg>
