<svg t="1770369823865" class="icon" viewBox="0 0 1072 1024" version="1.1" xmlns="http://www.w3.org/2000/svg" p-id="8756" width="200" height="200"><path d="M243.845288 195.034971v-134.094279C243.845288 27.313973 271.076742 0.04126 304.703461 0h463.264788c33.626719 0 60.899432 27.313973 60.940693 60.940692v134.094279H243.804029z m585.063654 768.009509c0 33.626719-27.231454 60.899432-60.899433 60.940692H304.744721a61.023212 61.023212 0 0 1-60.940692-60.940692v-329.12925h585.146172v329.12925z m-243.762769-109.75101a24.343269 24.343269 0 0 0-24.384529-24.343269H365.726673a24.343269 24.343269 0 0 0 0 48.769058h195.034971a24.343269 24.343269 0 0 0 24.343269-24.384529z m146.265913 0a24.384529 24.384529 0 0 0-24.343269-24.343269h-48.810318a24.384529 24.384529 0 0 0 0 48.769058h48.769058a24.343269 24.343269 0 0 0 24.384529-24.384529z m0-146.265913a24.343269 24.343269 0 0 0-24.343269-24.343269H365.685413a24.343269 24.343269 0 1 0 0 48.727798h341.300884c13.491947 0 24.384529-10.892581 24.384529-24.343269zM1072.75423 304.744721v414.49573c0 33.626719-27.313973 60.899432-60.940692 60.940693h-134.094279v-146.265914h24.343269a24.343269 24.343269 0 1 0 0-48.769057H170.691702a24.343269 24.343269 0 0 0 0 48.769057h24.384529v146.265914h-134.094279A61.023212 61.023212 0 0 1 0 719.240451V304.744721C0 271.118002 27.313973 243.845288 60.940692 243.845288h950.872846c33.626719 0.04126 60.899432 27.313973 60.940692 60.940693z m-97.538115 60.981952a24.343269 24.343269 0 1 0-48.727798 0 24.343269 24.343269 0 0 0 48.727798 0z" fill="#32C8AF" p-id="8757"></path></svg>
