<svg t="1783319125901" class="icon" viewBox="0 0 1121 1024" version="1.1" xmlns="http://www.w3.org/2000/svg" p-id="7130" width="200" height="200"><path d="M836.169143 463.238095c152.088381 0 275.407238 123.294476 275.407238 275.407238 0 152.088381-123.318857 275.407238-275.407238 275.407238C684.056381 1014.052571 560.761905 890.733714 560.761905 738.645333 560.761905 586.532571 684.056381 463.238095 836.169143 463.238095z m0 73.142857a202.264381 202.264381 0 1 0 0 404.528762 202.264381 202.264381 0 0 0 0-404.528762zM545.133714 23.356952L801.206857 123.855238l24.966095 11.873524v286.110476a316.416 316.416 0 0 0-240.493714 122.563048l-0.170667 0.073143a316.391619 316.391619 0 0 0-66.31619 194.169904c0 28.40381 3.754667 55.954286 10.776381 82.16381l-193.072762 88.307809-32.426667 14.823619-32.426666-14.823619L23.478857 795.428571V491.227429l22.649905-7.436191 217.965714-83.943619 0.048762-216.673524V130.243048l22.625524-7.436191L545.158095 23.356952z m293.692953 754.761143a37.156571 37.156571 0 1 1 0 74.313143 37.156571 37.156571 0 0 1 0-74.313143zM518.070857 576.609524l-179.858286 80.822857v176.566857l179.858286-80.822857V576.609524z m-427.154286-2.755048v179.321905l179.833905 80.822857v-179.321905l-179.858286-80.822857z m743.789715 34.596572c19.577905 0 35.644952 15.140571 37.059047 34.377142l0.097524 2.755048v73.801143a37.156571 37.156571 0 0 1-74.191238 2.779429l-0.121905-2.779429V645.607619c0-20.504381 16.65219-37.13219 37.156572-37.13219z m-531.870476-156.281905L130.56 514.925714l173.275429 80.091429 158.47619-69.973333-159.475809-72.899048zM758.735238 215.600762l-179.882667 80.822857v176.566857l179.882667-80.822857V215.625143z m-427.178667-2.755048v179.321905l48.688762 21.869714 131.169524 51.468191v-171.836953l-179.858286-80.822857z m212.943239-122.051047l-173.29981 63.146666L544.49981 234.057143l181.443047-80.091429-181.443047-63.146666z" fill="#BD3124" p-id="7131"></path></svg>
