<svg t="1783473864887" class="icon" viewBox="0 0 1024 1024" version="1.1" xmlns="http://www.w3.org/2000/svg" p-id="3662" width="200" height="200"><path d="M103.082667 887.808a33.109333 33.109333 0 0 1-19.626667-13.056 36.352 36.352 0 0 1 0-29.952l398.848-640.256a32.426667 32.426667 0 0 1 54.613333 0l402.346667 631.125333c6.229333 11.093333 7.509333 24.234667 3.584 36.352a37.546667 37.546667 0 0 1-22.357333 15.786667h-817.493334z" fill="#E90006" p-id="3663"></path><path d="M508.330667 225.877333L907.093333 850.773333v1.962667H117.162667l391.168-626.773333z m0-71.338666a66.730667 66.730667 0 0 0-57.429334 31.914666l-401.066666 643.754667A63.488 63.488 0 0 0 102.4 922.453333h818.688a66.986667 66.986667 0 0 0 54.442667-38.912 65.706667 65.706667 0 0 0-6.997334-66.048L564.906667 186.453333a66.730667 66.730667 0 0 0-56.576-31.146666v-0.853334z" fill="#F2F2F2" p-id="3664"></path><path d="M847.189333 817.493333H175.274667l331.776-530.517333L847.189333 817.493333zM203.093333 803.328h615.68L507.050667 315.818667 203.093333 803.328z" fill="#F2F2F2" p-id="3665"></path><path d="M429.738667 751.701333l-9.216 28.330667H607.573333l-9.130666-28.330667H429.738667z m83.712-187.392a74.24 74.24 0 0 0-74.581334 73.728V728.746667h150.357334V638.037333a74.24 74.24 0 0 0-74.581334-73.728h-1.194666z m-86.528 44.202667a12.458667 12.458667 0 0 0 0-9.130667 13.141333 13.141333 0 0 0-7.594667-5.12l-34.986667-6.656a12.8 12.8 0 0 0-10.837333 2.730667 11.776 11.776 0 0 0 5.973333 20.48l35.072 7.082667a12.373333 12.373333 0 0 0 12.373334-9.386667z m-7.936-78.933333l22.272 27.648c4.266667 5.12 11.946667 5.973333 17.152 1.962666a12.970667 12.970667 0 0 0 4.437333-8.277333 11.349333 11.349333 0 0 0-2.816-8.704L437.76 514.56a12.117333 12.117333 0 0 0-16.896-1.706667 11.861333 11.861333 0 0 0-1.792 16.725334z m96.426666 10.24a11.946667 11.946667 0 0 0 12.373334-11.434667v-37.461333a12.288 12.288 0 0 0-11.946667-12.202667 12.714667 12.714667 0 0 0-12.373333 11.776v35.498667a12.202667 12.202667 0 0 0 11.946666 12.288v1.536z m56.32 21.674666c2.218667 2.389333 5.461333 3.498667 8.704 3.157334a11.946667 11.946667 0 0 0 8.362667-3.925334l23.893333-26.794666a12.117333 12.117333 0 0 0-2.474666-15.445334 12.458667 12.458667 0 0 0-15.786667-0.341333l-23.552 26.453333a11.349333 11.349333 0 0 0-2.816 9.813334 10.24 10.24 0 0 0 3.584 7.082666z m88.490667 43.861334a11.946667 11.946667 0 0 0-13.568-10.24l-35.498667 5.461333a11.093333 11.093333 0 0 0-9.984 7.509333 11.349333 11.349333 0 0 0 0.853334 12.202667 13.226667 13.226667 0 0 0 11.946666 3.925333l35.498667-5.461333a11.178667 11.178667 0 0 0 7.936-4.778667 9.813333 9.813333 0 0 0 2.816-10.24v1.621334z" fill="#FFFFFF" p-id="3666"></path><path d="M938.837333 403.968c-44.885333 0-52.309333-23.722667-52.992-37.12l-9.642666-232.106667a45.994667 45.994667 0 0 1 12.544-32.682666 58.197333 58.197333 0 0 1 41.216-16.725334h18.176a56.746667 56.746667 0 0 1 41.130666 16.725334 45.226667 45.226667 0 0 1 12.629334 32.597333l-8.533334 231.424c-0.341333 15.957333-8.106667 37.888-54.528 37.888z" fill="#FFFFFF" p-id="3667"></path><path d="M948.053333 103.509333a33.024 33.024 0 0 1 37.205334 30.464l-8.533334 231.424c0 15.957333-17.066667 20.394667-37.12 20.394667s-33.792-3.754667-33.792-20.48l-9.984-231.424a33.024 33.024 0 0 1 37.12-30.378667h18.176" fill="#EE0000" p-id="3668"></path><path d="M877.653333 462.165333c0 31.573333 27.562667 57.173333 61.610667 57.173334 33.962667 0 61.610667-25.6 61.525333-57.173334 0-31.573333-27.562667-57.173333-61.525333-57.173333-34.133333 0-61.610667 25.6-61.610667 57.173333z" fill="#FFFFFF" p-id="3669"></path><path d="M939.264 422.826667a41.130667 41.130667 0 0 1 43.434667 39.253333 43.776 43.776 0 0 1-87.210667 0 41.557333 41.557333 0 0 1 43.776-39.253333z" fill="#EE0000" p-id="3670"></path><path d="M617.386667 403.968c-44.885333 0-52.309333-23.722667-53.077334-37.12L554.666667 135.082667a44.544 44.544 0 0 1 12.629333-32.682667 58.197333 58.197333 0 0 1 41.898667-17.066667h18.176a56.746667 56.746667 0 0 1 41.216 16.725334 45.226667 45.226667 0 0 1 12.544 32.597333l-8.533334 231.424c-1.109333 15.957333-8.874667 37.888-55.210666 37.888z" fill="#FFFFFF" p-id="3671"></path><path d="M626.688 103.509333a33.024 33.024 0 0 1 37.12 30.464l-8.533333 231.424c0 15.957333-17.493333 20.394667-37.12 20.394667s-34.474667-4.096-34.901334-20.48l-11.093333-231.424a33.024 33.024 0 0 1 37.12-30.378667h17.408z" fill="#EE0000" p-id="3672"></path><path d="M678.997333 462.165333q0 5.632-1.194666 11.178667t-3.498667 10.752q-2.304 5.12-5.717333 9.813333-3.413333 4.693333-7.68 8.704-4.266667 3.925333-9.301334 7.082667-5.12 3.157333-10.666666 5.290667t-11.52 3.242666q-5.973333 1.109333-11.946667 1.109334-6.144 0-12.117333-1.109334-5.973333-1.109333-11.52-3.242666-5.632-2.133333-10.666667-5.290667t-9.301333-7.082667q-4.266667-4.010667-7.68-8.704-3.413333-4.693333-5.632-9.813333-2.389333-5.205333-3.498667-10.752-1.194667-5.546667-1.194667-11.093333 0-5.717333 1.194667-11.178667 1.109333-5.546667 3.413333-10.752 2.389333-5.12 5.717334-9.813333 3.413333-4.693333 7.68-8.704 4.266667-3.925333 9.386666-7.082667 4.949333-3.157333 10.581334-5.290667t11.52-3.242666q5.973333-1.109333 12.032-1.109334 6.058667 0 11.946666 1.109334 5.973333 1.109333 11.605334 3.242666t10.666666 5.290667q5.12 3.157333 9.386667 7.082667 4.266667 4.010667 7.68 8.704 3.328 4.608 5.632 9.813333 2.304 5.205333 3.413333 10.752 1.28 5.461333 1.28 11.093333z" fill="#FFFFFF" p-id="3673"></path><path d="M617.386667 422.826667a41.557333 41.557333 0 0 1 43.776 39.253333 43.776 43.776 0 0 1-87.125334 0 41.130667 41.130667 0 0 1 43.349334-39.253333z" fill="#EE0000" p-id="3674"></path><path d="M778.410667 403.968c-44.885333 0-52.650667-23.808-53.418667-37.12l-9.642667-231.765333a44.885333 44.885333 0 0 1 12.970667-32.682667 57.514667 57.514667 0 0 1 40.789333-17.066667h18.602667a55.978667 55.978667 0 0 1 40.789333 16.725334c8.618667 8.533333 13.312 20.48 12.970667 32.597333L831.829333 366.08c0 15.957333-7.424 37.888-53.418666 37.888z" fill="#FFFFFF" p-id="3675"></path><path d="M787.626667 103.509333a32.597333 32.597333 0 0 1 37.034666 30.378667l-8.533333 231.424c0 15.957333-17.066667 20.48-37.12 20.48-19.968 0-34.474667-4.096-35.157333-20.48L734.208 133.973333a32.597333 32.597333 0 0 1 37.034667-30.378666h18.517333" fill="#EE0000" p-id="3676"></path><path d="M839.936 462.165333q0 5.632-1.109333 11.178667-1.194667 5.546667-3.584 10.752-2.304 5.12-5.632 9.813333-3.413333 4.693333-7.68 8.704-4.266667 3.925333-9.386667 7.082667-4.949333 3.157333-10.581333 5.290667t-11.52 3.242666q-5.973333 1.109333-12.032 1.109334-6.058667 0-11.946667-1.109334-5.973333-1.109333-11.605333-3.242666t-10.666667-5.290667q-5.034667-3.157333-9.386667-7.082667-4.266667-4.010667-7.594666-8.704-3.413333-4.693333-5.717334-9.813333-2.304-5.205333-3.413333-10.752-1.28-5.546667-1.28-11.093333 0-5.717333 1.194667-11.178667 1.194667-5.546667 3.498666-10.752 2.389333-5.12 5.717334-9.813333 3.413333-4.693333 7.68-8.704 4.266667-3.925333 9.386666-7.082667 4.949333-3.157333 10.581334-5.290667 5.546667-2.133333 11.52-3.242666 5.973333-1.109333 11.946666-1.109334 6.144 0 12.117334 1.109334 5.973333 1.109333 11.52 3.242666 5.632 2.133333 10.666666 5.290667t9.386667 7.082667q4.266667 4.010667 7.594667 8.704 3.413333 4.608 5.632 9.813333 2.389333 5.205333 3.584 10.752 1.109333 5.461333 1.109333 11.093333z" fill="#FFFFFF" p-id="3677"></path><path d="M778.24 422.826667a41.557333 41.557333 0 0 1 43.776 39.253333 44.117333 44.117333 0 0 1-87.552 0 41.557333 41.557333 0 0 1 43.776-39.253333z" fill="#EE0000" p-id="3678"></path></svg>
