<svg t="1783067058108" class="icon" viewBox="0 0 1024 1024" version="1.1" xmlns="http://www.w3.org/2000/svg" p-id="6964" width="200" height="200"><path d="M512 202.24c33.28 56.32 69.12 104.96 102.4 153.6 84.48 120.32 153.6 215.04 153.6 320 0 140.8-115.2 256-256 256s-256-115.2-256-256c0-107.52 66.56-202.24 153.6-320 33.28-48.64 69.12-99.84 102.4-153.6M512 0C396.8 279.04 163.84 442.88 163.84 675.84 163.84 867.84 320 1024 512 1024s348.16-156.16 348.16-348.16c0-232.96-232.96-396.8-348.16-675.84z" fill="#FF0000" p-id="6965"></path><path d="M576 744.96c-30.72 0-58.88-10.24-79.36-30.72l-30.72-30.72c-10.24-7.68-23.04-7.68-30.72 0l-28.16 25.6c-17.92 17.92-48.64 17.92-66.56 0s-17.92-48.64 0-66.56l28.16-25.6c46.08-43.52 115.2-43.52 161.28 0l28.16 30.72c10.24 7.68 23.04 7.68 30.72 0l28.16-25.6c17.92-17.92 48.64-15.36 66.56 2.56 17.92 17.92 17.92 48.64-2.56 66.56l-28.16 25.6c-20.48 15.36-48.64 28.16-76.8 28.16z" fill="#FF0000" p-id="6966"></path></svg>
