<svg t="1767770442324" class="icon" viewBox="0 0 1024 1024" version="1.1" xmlns="http://www.w3.org/2000/svg" p-id="5123" width="200" height="200"><path d="M896 664.848V800a96 96 0 0 1-96 96H224a96 96 0 0 1-96-96l-0.016-28.96C194.528 790.352 285.2 800 400 800c165.328 0 330.672-45.056 496-135.152zM800 128a96 96 0 0 1 96 96v409.104C772.48 701.696 639.136 736 496 736c-135.936 0-258.592-26.512-368-79.536V224a96 96 0 0 1 96-96h576z m-427.088 143.936C262.384 236.32 192 253.232 192 336c0 29.296 12.16 51.904 34.24 66.624 12.544 8.368 23.36 12.464 44.816 18.08l12.8 3.248c29.264 7.456 35.328 10.992 36.064 21.408L320 448c0 21.216-27.52 27.552-108.608 4.336l-10.192-2.992-18.4 61.312 7.168 2.112c54.448 15.728 96.72 20.928 128.32 14.608C359.776 519.072 384 490.032 384 448c0-29.296-12.16-51.904-34.24-66.624-12.544-8.368-23.36-12.464-44.816-18.08l-12.8-3.248C260.544 351.984 256 348.528 256 336l0.032-1.392c0.96-21.424 24.992-25.872 101.856-0.256l20.224-60.704zM496 208l-64 48v192l0.064 3.68c2.48 74.24 79.728 98.912 145.68 54.944l-35.488-53.248-2.864 1.84C512.16 472.288 496 466.288 496 448v-112h64v-64h-64v-64z m224 48c-68.864 0-128 65.696-128 144 0 77.232 57.12 128 128 128s128-50.768 128-128c0-78.304-59.136-144-128-144z m0 64c31.936 0 64 35.632 64 80 0 40.096-26.88 64-64 64-37.12 0-64-23.904-64-64 0-44.368 32.064-80 64-80z" fill="#000000" p-id="5124"></path></svg>
