<svg t="1762840745394" class="icon" viewBox="0 0 1024 1024" version="1.1" xmlns="http://www.w3.org/2000/svg" p-id="3409" width="200" height="200"><path d="M591.569455 593.454545H296.029091c-18.850909 0-34.094545 15.616-34.094546 34.909091s15.266909 34.909091 34.094546 34.909091h295.517091c18.827636 0 34.094545-15.616 34.094545-34.909091s-15.266909-34.909091-34.094545-34.909091m223.511273-178.432c-54.574545 0-100.584727-38.306909-113.687273-90.042181-4.491636-17.733818-19.968-30.184727-37.841455-30.184728-17.92 0-33.349818 12.450909-37.841454 30.161455-13.125818 51.758545-59.136 90.065455-113.710546 90.065454s-100.584727-38.306909-113.710545-90.065454c-4.491636-17.710545-19.944727-30.161455-37.841455-30.161455-17.873455 0-33.349818 12.450909-37.841454 30.184728-13.102545 51.735273-59.112727 90.042182-113.664 90.042181-62.952727 0-114.432-50.874182-117.341091-114.548363L172.288 116.363636h679.424l80.709818 184.110546c-2.909091 63.674182-54.411636 114.548364-117.341091 114.548363M867.677091 46.545455H156.322909c-19.176727 0-36.328727 12.334545-42.821818 30.859636L23.272727 288.721455v6.074181c0 78.661818 46.964364 146.338909 113.664 175.173819V896c0 44.986182 35.607273 81.454545 79.569455 81.454545h454.609454c43.962182 0 79.569455-36.468364 79.569455-81.454545v-232.727273c0-19.293091-15.266909-34.909091-34.094546-34.909091-18.850909 0-34.117818 15.616-34.117818 34.909091v232.727273c0 6.423273-5.073455 11.636364-11.357091 11.636364H216.506182a11.496727 11.496727 0 0 1-11.403637-11.636364V484.654545c1.303273 0.023273 2.536727 0.186182 3.84 0.186182 62.464 0 117.853091-31.767273 151.505455-80.384 33.675636 48.616727 89.041455 80.384 151.552 80.384 62.533818 0 117.876364-31.767273 151.552-80.384 33.652364 48.616727 89.041455 80.384 151.505455 80.384 1.303273 0 2.536727-0.162909 3.84-0.186182V942.545455c0 19.293091 15.266909 34.909091 34.071272 34.90909 18.827636 0 34.094545-15.616 34.094546-34.90909V469.969455C953.762909 441.134545 1000.727273 373.457455 1000.727273 294.795636v-6.074181l-90.228364-211.316364A45.521455 45.521455 0 0 0 867.677091 46.545455M591.592727 733.090909H296.029091c-18.850909 0-34.094545 15.616-34.094546 34.909091s15.266909 34.909091 34.094546 34.909091h295.517091c18.827636 0 34.094545-15.616 34.094545-34.909091s-15.266909-34.909091-34.094545-34.909091" fill="#000000" p-id="3410"></path></svg>
