<svg t="1764651875204" class="icon" viewBox="0 0 1024 1024" version="1.1" xmlns="http://www.w3.org/2000/svg" p-id="2479" width="200" height="200"><path d="M474.06 872.68H108.7v-19.49c0-201.36 162.67-366.92 362.58-369.07H477.55c113.67-1.45 205.7-94.35 205.71-208.36A208.42 208.42 0 0 0 474.9 67.27c-114.91 0-208.41 93.49-208.41 208.4a208.39 208.39 0 0 0 94.44 174.43 414.93 414.93 0 0 0-182 108.79A419.64 419.64 0 0 0 58.7 853.18v44.47a25 25 0 0 0 25 25h390.36a25 25 0 1 0 0-50z m-157.58-597c0-87.35 71.07-158.41 158.42-158.41A158.42 158.42 0 0 1 633.3 275.7c0 87.34-71.07 158.4-158.42 158.4S316.47 363 316.48 275.68z" fill="#CCCCCC" p-id="2480"></path><path d="M961.44 617.53a25 25 0 0 0-20.19-17l-144.07-20.95L732.75 449a25 25 0 0 0-44.83 0l-64.44 130.58-144.07 20.94a25 25 0 0 0-13.85 42.64l104.25 101.62-24.61 143.49a25 25 0 0 0 36.27 26.36l128.86-67.75 128.86 67.75a25 25 0 0 0 36.28-26.36l-24.61-143.49 104.25-101.62a25 25 0 0 0 6.33-25.63zM806.55 718.15a25 25 0 0 0-7.19 22.13l18.27 106.52L722 796.51a25 25 0 0 0-23.27 0L603 846.8l18.27-106.52a25 25 0 0 0-7.19-22.13l-77.39-75.43 106.95-15.55a25 25 0 0 0 18.86-13.67l47.83-96.91 47.83 96.91A25 25 0 0 0 777 627.17l107 15.55z" fill="#CCCCCC" p-id="2481"></path></svg>
