<svg t="1754543554039" class="icon" viewBox="0 0 1024 1024" version="1.1" xmlns="http://www.w3.org/2000/svg" p-id="22777" width="200" height="200"><path d="M95.299 433.873l-29.708-40.218L512.086 63.843l445.022 329.836-29.772 40.17-415.299-307.807z" p-id="22778" fill="#ffffff"></path><path d="M169.106 326.223h50v611.846h-50zM789.64 326.223h50v87.541h-50z" p-id="22779" fill="#ffffff"></path><path d="M461.729284 527.179624a50.674 50.674 0 1 0 100.040607-16.226338 50.674 50.674 0 1 0-100.040607 16.226338Z" p-id="22780" fill="#ffffff"></path><path d="M901.438 799.582h67.931V673.355H901.341a165.5 165.5 0 0 0-22.243-38.478l0.048-0.084 33.98-58.854-109.316-63.113-34.029 58.939a167.992 167.992 0 0 0-44.429 0l-27.748-48.061c3.043-22.629 2.844-45.607-1.799-68.584-7.041-34.838-22.467-64.403-45.852-87.873-21.168-21.246-48.573-36.685-79.252-44.648-35.337-9.173-73.16-8.373-109.384 2.31-37.684 11.113-70.583 32.17-95.141 60.896-26.078 30.502-39.874 68.924-39.896 111.11-0.043 83.488 46.054 160.191 86.22 217.688 3.188 4.563 26.937 34.085 41.983 52.602 7.471 9.193 18.169 22.295 26.71 32.506 3.942 4.713 7.091 8.409 9.359 10.986 4.587 5.212 10.295 11.698 20.939 12.426l11.971 0.805 8.123-8.785 0.522-0.583c4.377-5.042 8.649-10.03 12.83-14.976h48.853a165.577 165.577 0 0 0 22.243 38.478l-0.048 0.084-18.949 32.82c-26.248 3.776-54.687 5.757-84.088 5.757-59.474 0-115.029-8.094-156.43-22.79-37.607-13.35-51.623-28.513-51.623-34.936 0-7.76 19.958-28.681 81.647-43.817l-11.915-48.561c-77.21 18.945-119.732 51.753-119.732 92.378 0 23.686 14.729 57.148 84.896 82.056 46.635 16.554 108.129 25.67 173.156 25.67 37.074 0 72.994-2.968 105.672-8.583l72.7 41.973 34.028-58.939c7.368 0.987 14.818 1.494 22.215 1.494s14.846-0.508 22.215-1.494l34.028 58.939L913.12 897l-33.98-58.854-0.048-0.084a165.465 165.465 0 0 0 22.243-38.478h0.103zM751.379 863.37a129.95 129.95 0 0 1-16.154-0.525 126.088 126.088 0 0 1-23.745-4.608l-5.67-1.68-19.945 34.546h0.001l-7.205 12.479c-1.443 0.472-2.898 0.938-4.366 1.397l-38.695-22.34 12.788-22.149 3.788-6.561-0.001-0.001 12.289-21.286-4.286-4.069a128.277 128.277 0 0 1-15.902-18.239 126.581 126.581 0 0 1-12.348-21.354l-0.007-0.016a128.432 128.432 0 0 1-1.355-3.083l-0.001-0.001c-1.893-4.476-3.52-9.1-4.89-13.799a126.798 126.798 0 0 1-1.602-5.975l-0.094-0.391-1.282-5.365h-57.701v-47.764H622.697l1.376-5.756a126.296 126.296 0 0 1 6.493-19.774c0.438-1.035 0.891-2.062 1.355-3.083l0.007-0.016a126.04 126.04 0 0 1 3.785-7.618 736.684 736.684 0 0 0 7.099-11.642c0.482-0.703 0.968-1.403 1.464-2.095a128.277 128.277 0 0 1 15.902-18.239l4.286-4.069-4.079-7.065-8.21-14.22 0.001-0.001-16.576-28.71 41.365-23.882 7.148 12.382 1.752 3.035h-0.001l19.946 34.547 5.67-1.68a126.024 126.024 0 0 1 23.746-4.608l0.02-0.002c8.198-0.78 16.444-0.78 24.642 0l0.02 0.002c8.036 0.77 16.025 2.32 23.746 4.608l5.67 1.68 19.946-34.547h-0.001l8.9-15.417 41.365 23.882-16.576 28.71 0.001 0.001-12.289 21.286 4.286 4.069a128.277 128.277 0 0 1 15.902 18.239 126.642 126.642 0 0 1 12.348 21.354l0.007 0.016c0.464 1.021 0.917 2.048 1.355 3.083l0.001 0.001a126.385 126.385 0 0 1 6.492 19.773l1.376 5.756h57.7v47.764h-57.7l-1.376 5.756a126.296 126.296 0 0 1-6.493 19.774 128.432 128.432 0 0 1-1.355 3.083l-0.007 0.016a126.474 126.474 0 0 1-12.348 21.354 128.277 128.277 0 0 1-13.513 15.913l-0.003 0.004a124.19 124.19 0 0 1-2.386 2.322l-4.286 4.069 12.289 21.286-0.001 0.001 16.576 28.71-41.365 23.882-8.901-15.418h0.001l-19.945-34.546-5.67 1.68a126.024 126.024 0 0 1-23.745 4.608c-2.834 0.272-5.68 0.442-8.53 0.526zM513.044 759.814c-21.429-25.944-55.229-67.924-59.619-73.939-35.95-51.474-77.181-119.449-77.145-188.936 0.016-30.119 9.663-57.313 27.9-78.645 36.52-42.717 98.393-61.725 153.958-47.3 27.454 7.126 75.479 28.819 88.657 94.03 4.992 24.701 3.051 50.164-3.297 75.414l-61.49 35.501 27.161 47.043 6.819 11.811 0.048 0.084a165.5 165.5 0 0 0-22.243 38.478h-68.027v70.942a1252.525 1252.525 0 0 1-12.722 15.517z" p-id="22781" fill="#ffffff"></path><path d="M811.837 780.733a77.576 77.576 0 0 0 12.49-30.157 78.711 78.711 0 0 0 0-28.213 77.59 77.59 0 0 0-12.491-30.159 78.443 78.443 0 0 0-13.688-15.153 77.638 77.638 0 0 0-24.429-14.12 77.772 77.772 0 0 0-19.963-4.253 78.974 78.974 0 0 0-12.381 0 77.798 77.798 0 0 0-19.964 4.253 77.694 77.694 0 0 0-24.428 14.12 78.242 78.242 0 0 0-19.897 25.885 77.576 77.576 0 0 0-6.281 19.426 78.673 78.673 0 0 0-1.108 9.272 78.845 78.845 0 0 0-0.168 4.835c0 4.729 0.43 9.477 1.275 14.106a77.59 77.59 0 0 0 12.491 30.159 78.44 78.44 0 0 0 13.688 15.153c0.31 0.264 0.632 0.511 0.945 0.77a77.936 77.936 0 0 0 23.482 13.351 77.726 77.726 0 0 0 19.964 4.253c2.059 0.162 4.142 0.244 6.19 0.244s4.132-0.082 6.19-0.244a77.718 77.718 0 0 0 16.67-3.174 77.705 77.705 0 0 0 3.294-1.079 77.721 77.721 0 0 0 24.429-14.12 78.462 78.462 0 0 0 13.69-15.155z m-108.076-44.264c0-5.14 0.887-10.176 2.635-14.968a43.69 43.69 0 0 1 7.65-13.194c6.638-7.887 15.836-13.206 25.901-14.979a44.19 44.19 0 0 1 15.238 0c10.065 1.773 19.264 7.093 25.901 14.979a43.703 43.703 0 0 1 7.65 13.194c1.748 4.792 2.635 9.828 2.635 14.968s-0.887 10.176-2.635 14.968a43.69 43.69 0 0 1-7.65 13.194c-6.535 7.764-15.551 13.032-25.431 14.886-0.157 0.029-0.313 0.066-0.47 0.094a44.257 44.257 0 0 1-15.238 0c-10.064-1.772-19.263-7.092-25.901-14.979a43.703 43.703 0 0 1-7.65-13.194 43.393 43.393 0 0 1-1.946-7.216 43.854 43.854 0 0 1-0.689-7.753z" p-id="22782" fill="#ffffff"></path></svg>
