<svg t="1759042997264" class="icon" viewBox="0 0 1024 1024" version="1.1" xmlns="http://www.w3.org/2000/svg" p-id="1865" width="200" height="200"><path d="M733.866667 853.333333h-136.533334v-34.133333h-34.133333v51.2a17.066667 17.066667 0 0 0 17.066667 17.066667h170.666666a17.066667 17.066667 0 0 0 17.066667-17.066667v-51.2h-34.133333z m0 0M512 409.6v136.533333a17.066667 17.066667 0 0 0 17.066667 17.066667h51.2v-34.133333h-34.133334v-102.4h34.133334v-34.133334h-51.2a17.066667 17.066667 0 0 0-17.066667 17.066667z m0 0M785.066667 409.6v136.533333a17.066667 17.066667 0 0 0 17.066666 17.066667h51.2v-34.133333h-34.133333v-102.4h34.133333v-34.133334h-51.2a17.066667 17.066667 0 0 0-17.066666 17.066667z m0 0M324.266667 204.8h34.133333c0-84.834133-68.765867-153.6-153.6-153.6S51.2 119.965867 51.2 204.8h34.133333c0-65.984 53.482667-119.466667 119.466667-119.466667s119.466667 53.482667 119.466667 119.466667z m0 0" p-id="1866"></path><path d="M221.866667 209.5424V136.533333H187.733333v73.009067a34.129067 34.129067 0 0 0-15.899733 38.4 34.129067 34.129067 0 0 0 65.9328 0 34.129067 34.129067 0 0 0-15.899733-38.4z m0 0" p-id="1867"></path><path d="M1006.933333 921.6h-17.066666v-187.733333a17.066667 17.066667 0 0 0-17.066667-17.066667h-17.066667V221.866667a17.066667 17.066667 0 0 0-17.066666-17.066667h-204.8a17.066667 17.066667 0 0 0-17.066667 17.066667v494.933333h-34.133333V221.866667a17.066667 17.066667 0 0 0-17.066667-17.066667h-204.8a17.066667 17.066667 0 0 0-17.066667 17.066667v494.933333h-85.333333a17.066667 17.066667 0 0 0-17.066667 17.066667v187.733333h-85.333333V375.466667h102.4c28.2752 0 51.2-22.9248 51.2-51.2V51.2c0-28.2752-22.9248-51.2-51.2-51.2H51.2C22.9248 0 0 22.9248 0 51.2v273.066667c0 28.2752 22.9248 51.2 51.2 51.2h102.4v546.133333H17.066667a17.066667 17.066667 0 0 0-17.066667 17.066667v68.266666a17.066667 17.066667 0 0 0 17.066667 17.066667h989.866666a17.066667 17.066667 0 0 0 17.066667-17.066667v-68.266666a17.066667 17.066667 0 0 0-17.066667-17.066667zM750.933333 238.933333h170.666667v477.866667h-170.666667z m-273.066666 0h170.666666v477.866667h-170.666666z m-102.4 512h580.266666v170.666667H375.466667zM34.133333 324.266667V51.2a17.066667 17.066667 0 0 1 17.066667-17.066667h307.2a17.066667 17.066667 0 0 1 17.066667 17.066667v273.066667a17.066667 17.066667 0 0 1-17.066667 17.066666H51.2a17.066667 17.066667 0 0 1-17.066667-17.066666z m153.6 51.2h34.133334v546.133333H187.733333z m802.133334 614.4H34.133333v-34.133334h955.733334z m0 0" p-id="1868"></path></svg>
