<svg t="1784700279799" class="icon" viewBox="0 0 1024 1024" version="1.1" xmlns="http://www.w3.org/2000/svg" p-id="2866" width="200" height="200"><path d="M356.117248 421.888l106.154667 71.031467 166.2464-208.0768a31.1296 31.1296 0 0 1 43.7248-4.6592c13.380267 10.752 15.598933 30.344533 4.9664 43.844266L493.111381 554.478933a31.0784 31.0784 0 0 1-41.659733 6.4512l-129.962667-86.971733a31.368533 31.368533 0 0 1-8.567466-43.3664 31.095467 31.095467 0 0 1 43.195733-8.704z m648.226133 590.916267c-7.133867 7.168-16.827733 11.195733-26.914133 11.195733H463.517781a391.714133 391.714133 0 0 1-136.874666-24.7296C234.892715 965.085867 72.776448 884.3264 18.692181 727.586133c-12.373333-52.1728-21.9136-119.978667 24.917334-149.589333 62.907733-39.867733 164.9664 35.089067 282.0608 129.4336 13.909333 11.195733 25.8048 20.804267 34.6624 27.392 59.511467 44.509867 148.1728 54.408533 208.9472 53.0944-20.701867-30.037333-39.1168-66.7136-37.12-100.386133 1.399467-23.722667 11.997867-43.946667 30.6688-58.402134 38.843733-30.242133 137.198933-3.874133 239.803733 34.440534 45.1584-62.3104 70.929067-143.223467 70.929067-220.791467 0-202.001067-169.847467-372.48-371.114667-372.48-201.250133 0-371.131733 170.496-371.131733 372.48 0 21.111467-13.9776 38.229333-35.003734 38.229333-21.0432 0-35.0208-17.117867-35.0208-38.229333C61.290581 198.621867 259.212715 0 502.446848 0c243.2512 0 441.1392 198.621867 441.1392 442.811733 0 87.261867-27.050667 171.537067-74.615467 243.6608a2590.685867 2590.685867 0 0 1 125.2864 58.0096A38.2464 38.2464 0 0 1 1015.504981 778.769067V985.770667c0 10.1376-4.010667 19.8656-11.1616 27.0336zM801.386581 741.188267l-0.290133-0.119467c-93.8496-36.881067-169.506133-57.719467-190.429867-49.954133-4.164267 11.9296 25.634133 63.3856 66.6112 103.7312a38.570667 38.570667 0 0 1 9.591467 39.3216 38.331733 38.331733 0 0 1-30.7712 26.180266c-8.721067 1.348267-214.084267 30.685867-339.7632-63.1808a1370.862933 1370.862933 0 0 1-37.102933-29.320533C173.162581 682.410667 107.216981 640.443733 83.562581 643.3792c1.399467 2.013867-2.184533 18.619733 8.2432 63.402667 43.008 124.0064 183.313067 192.938667 262.997334 222.634666a318.190933 318.190933 0 0 0 111.086933 20.036267h478.8224l0.017067-145.783467a2133.504 2133.504 0 0 0-143.342934-62.481066z" fill="#FFC765" p-id="2867"></path></svg>
