<svg t="1776758458981" class="icon" viewBox="0 0 1024 1024" version="1.1" xmlns="http://www.w3.org/2000/svg" p-id="3707" width="200" height="200"><path d="M887.588571 694.308571H89.380571V162.194286H887.588571v532.114285zM45.019429 73.508571C20.516571 73.508571 0.731429 93.330286 0.731429 117.833143V782.994286c0 24.502857 19.858286 44.361143 44.324571 44.361143h266.093714v44.324571H178.066286v88.722286h620.836571v-88.722286h-133.046857v-44.324571h266.093714c24.502857 0 44.324571-19.858286 44.324572-44.361143V117.833143c0-24.502857-19.858286-44.361143-44.324572-44.361143H44.982857z" fill="#1768E4" p-id="3708"></path><path d="M178.102857 561.298286V295.204571h88.649143v266.093715H178.102857z m177.371429 0V295.204571h88.649143v266.093715H355.474286z m354.742857 0V295.204571h88.685714v266.093715H710.217143z m-177.371429 0V295.204571h88.685715v266.093715H532.845714z" fill="#8BB3F1" p-id="3709"></path></svg>
