<svg t="1754543667971" class="icon" viewBox="0 0 1024 1024" version="1.1" xmlns="http://www.w3.org/2000/svg" p-id="25076" width="200" height="200"><path d="M232 232h80v80h-80zM712 232h80v80h-80zM232 712h80v80h-80z" fill="#ffffff" p-id="25077"></path><path d="M128 448h288c17.6 0 32-14.4 32-32V128c0-17.6-14.4-32-32-32H128c-17.6 0-32 14.4-32 32v288c0 17.6 14.4 32 32 32z m0-320h288v288H128V128zM416 576H128c-17.6 0-32 14.4-32 32v288c0 17.6 14.4 32 32 32h288c17.6 0 32-14.4 32-32V608c0-17.6-14.4-32-32-32z m0 320H128V608h288v288zM817 823.1c22.3-27 35.6-61.5 35.6-99.1 0-86-70-156-156-156s-156 70-156 156 70 156 156 156c36.9 0 70.8-12.9 97.5-34.4l74.9 70.3c3.1 2.9 7 4.3 10.9 4.3 4.3 0 8.5-1.7 11.7-5.1 6-6.4 5.7-16.6-0.7-22.6L817 823.1zM696.6 848c-68.4 0-124-55.6-124-124s55.6-124 124-124 124 55.6 124 124-55.6 124-124 124zM912 496H112c-8.8 0-16 7.2-16 16s7.2 16 16 16h800c8.8 0 16-7.2 16-16s-7.2-16-16-16zM512 448c8.8 0 16-7.2 16-16V112c0-8.8-7.2-16-16-16s-16 7.2-16 16v320c0 8.8 7.2 16 16 16z" fill="#ffffff" p-id="25078"></path><path d="M320 216h-96c-4.4 0-8 3.6-8 8v96c0 4.4 3.6 8 8 8h96c4.4 0 8-3.6 8-8v-96c0-4.4-3.6-8-8-8z m-8 96h-80v-80h80v80zM896 96H608c-17.6 0-32 14.4-32 32v288c0 17.6 14.4 32 32 32h288c17.6 0 32-14.4 32-32V128c0-17.6-14.4-32-32-32z m0 320H608V128h288v288z" fill="#ffffff" p-id="25079"></path><path d="M704 328h96c4.4 0 8-3.6 8-8v-96c0-4.4-3.6-8-8-8h-96c-4.4 0-8 3.6-8 8v96c0 4.4 3.6 8 8 8z m8-96h80v80h-80v-80zM224 808h96c4.4 0 8-3.6 8-8v-96c0-4.4-3.6-8-8-8h-96c-4.4 0-8 3.6-8 8v96c0 4.4 3.6 8 8 8z m8-96h80v80h-80v-80z" fill="#ffffff" p-id="25080"></path></svg>
