<svg t="1783581197191" class="icon" viewBox="0 0 1024 1024" version="1.1" xmlns="http://www.w3.org/2000/svg" p-id="17151" width="200" height="200"><path d="M954.037267 807.751553v-50.881988l63.602485-38.16149-25.440994-57.242236-69.962733 19.080745-38.161491-38.161491 19.080746-69.962733-57.242237-25.440994-38.16149 63.602485h-50.881988l-38.16149-63.602485-57.242236 25.440994 12.720496 69.962733-38.16149 38.161491-69.962733-19.080745-25.440994 57.242236 63.602484 38.16149v50.881988l-63.602484 38.16149 25.440994 57.242237L636.024845 890.434783l38.16149 38.16149-19.080745 69.962733 57.242236 25.440994 38.161491-63.602484h50.881987l38.161491 63.602484 57.242236-25.440994-19.080745-69.962733 38.16149-38.16149 69.962733 19.080745 25.440994-57.242236-57.242236-44.521739z m-69.962733 19.080745c-25.440994 57.242236-89.043478 82.68323-146.285714 57.242236-57.242236-25.440994-82.68323-89.043478-63.602485-146.285714 25.440994-57.242236 89.043478-82.68323 146.285715-57.242236 63.602484 19.080745 89.043478 89.043478 63.602484 146.285714z" p-id="17152"></path><path d="M228.968944 1011.279503c-50.881988 0-159.006211-31.801242-159.006211-139.925466V190.807453c0-127.204969 82.68323-190.807453 159.006211-190.807453h553.341615c95.403727 0 159.006211 63.602484 159.006211 165.36646v228.968944c0 19.080745-12.720497 44.521739-38.16149 44.521739-31.801242-6.360248-44.521739-19.080745-44.52174-44.521739V184.447205c0-69.962733-63.602484-95.403727-89.043478-95.403727H228.968944c-31.801242 0-82.68323 38.161491-82.68323 120.844721v636.024844c0 95.403727 63.602484 95.403727 89.043479 95.403727h190.807453c25.440994-6.360248 38.161491 19.080745 38.161491 38.161491s-12.720497 38.161491-44.521739 38.161491h-190.807454z" p-id="17153"></path><path d="M286.21118 178.086957h432.496895c19.080745 0 31.801242 12.720497 31.801242 31.801242s-12.720497 31.801242-31.801242 31.801242H286.21118c-19.080745 0-31.801242-19.080745-31.801242-31.801242s6.360248-31.801242 31.801242-31.801242zM286.21118 356.173913h432.496895c19.080745 0 31.801242 12.720497 31.801242 31.801242s-12.720497 31.801242-31.801242 31.801243H286.21118c-19.080745 0-31.801242-12.720497-31.801242-31.801243 0-12.720497 6.360248-31.801242 31.801242-31.801242zM286.21118 546.981366h184.447205c19.080745 0 31.801242 12.720497 31.801242 31.801243s-19.080745 31.801242-31.801242 31.801242H286.21118c-19.080745 0-31.801242-12.720497-31.801242-31.801242s6.360248-31.801242 31.801242-31.801243z" p-id="17154"></path></svg>
